NotoSansThaiUI-CondensedBold.ufo
<glyph name="uni02BC" format="2">
  <advance width="273"/>
  <unicode hex="02BC"/>
  <outline>
    <contour>
      <point x="224" y="714" type="line"/>
      <point x="65" y="714" type="line"/>
      <point x="63" y="647"/>
      <point x="44" y="499"/>
      <point x="31" y="429" type="curve"/>
      <point x="166" y="429" type="line"/>
      <point x="194" y="502"/>
      <point x="214" y="593"/>
      <point x="228" y="703" type="curve"/>
    </contour>
  </outline>
</glyph>
<glyph name="tildecomb" format="2">
  <unicode hex="0303"/>
  <anchor x="-91" y="511" name="_top"/>
  <outline>
    <contour>
      <point x="-120" y="772" type="curve"/>
      <point x="-204" y="772" type="line"/>
      <point x="-209" y="741"/>
      <point x="-215" y="724"/>
      <point x="-231" y="724" type="curve" smooth="yes"/>
      <point x="-276" y="724"/>
      <point x="-318" y="771"/>
      <point x="-373" y="771" type="curve" smooth="yes"/>
      <point x="-452" y="771"/>
      <point x="-460" y="666"/>
      <point x="-460" y="604" type="curve"/>
      <point x="-376" y="604" type="line"/>
      <point x="-374" y="640"/>
      <point x="-359" y="652"/>
      <point x="-349" y="652" type="curve" smooth="yes"/>
      <point x="-316" y="652"/>
      <point x="-259" y="605"/>
      <point x="-209" y="605" type="curve" smooth="yes"/>
      <point x="-159" y="605"/>
      <point x="-120" y="663"/>
    </contour>
  </outline>
</glyph>
<glyph name="macronbelowcomb" format="2">
  <unicode hex="0331"/>
  <anchor x="-52" y="0" name="_bottom"/>
  <outline>
    <contour>
      <point x="-120" y="-85" type="line"/>
      <point x="-412" y="-85" type="line"/>
      <point x="-412" y="-200" type="line"/>
      <point x="-120" y="-200" type="line"/>
    </contour>
  </outline>
</glyph>
<glyph name="koKai-thai" format="2">
  <advance width="518"/>
  <unicode hex="0E01"/>
  <note>
uni0E01
</note>
  <anchor x="466" y="0" name="bottom"/>
  <anchor x="449" y="506" name="top"/>
  <outline>
    <contour>
      <point x="45" y="0" type="line"/>
      <point x="207" y="0" type="line"/>
      <point x="207" y="164" type="line" smooth="yes"/>
      <point x="207" y="210"/>
      <point x="213" y="243"/>
      <point x="250" y="246" type="curve"/>
      <point x="260" y="313" type="line"/>
      <point x="204" y="347" type="line"/>
      <point x="207" y="377"/>
      <point x="215" y="403"/>
      <point x="250" y="403" type="curve" smooth="yes"/>
      <point x="292" y="403"/>
      <point x="304" y="373"/>
      <point x="304" y="316" type="curve" smooth="yes"/>
      <point x="304" y="0" type="line"/>
      <point x="466" y="0" type="line"/>
      <point x="466" y="325" type="line" smooth="yes"/>
      <point x="466" y="460"/>
      <point x="396" y="531"/>
      <point x="255" y="531" type="curve" smooth="yes"/>
      <point x="111" y="531"/>
      <point x="37" y="452"/>
      <point x="37" y="354" type="curve" smooth="yes"/>
      <point x="37" y="332" type="line"/>
      <point x="119" y="296" type="line"/>
      <point x="119" y="292" type="line"/>
      <point x="66" y="272"/>
      <point x="45" y="230"/>
      <point x="45" y="150" type="curve" smooth="yes"/>
    </contour>
  </outline>
</glyph>
<glyph name="khoKhai-thai" format="2">
  <advance width="509"/>
  <unicode hex="0E02"/>
  <note>
uni0E02
</note>
  <anchor x="441" y="0" name="bottom"/>
  <anchor x="457" y="506" name="top"/>
  <outline>
    <contour>
      <point x="252" y="-14" type="curve" smooth="yes"/>
      <point x="385" y="-14"/>
      <point x="457" y="53"/>
      <point x="457" y="187" type="curve" smooth="yes"/>
      <point x="457" y="517" type="line"/>
      <point x="296" y="517" type="line"/>
      <point x="296" y="189" type="line" smooth="yes"/>
      <point x="296" y="140"/>
      <point x="284" y="110"/>
      <point x="252" y="110" type="curve" smooth="yes"/>
      <point x="221" y="110"/>
      <point x="212" y="137"/>
      <point x="212" y="191" type="curve" smooth="yes"/>
      <point x="212" y="223" type="line" smooth="yes"/>
      <point x="212" y="270"/>
      <point x="224" y="286"/>
      <point x="236" y="317" type="curve" smooth="yes"/>
      <point x="248" y="348"/>
      <point x="253" y="375"/>
      <point x="253" y="411" type="curve" smooth="yes"/>
      <point x="253" y="482"/>
      <point x="224" y="526"/>
      <point x="144" y="526" type="curve" smooth="yes"/>
      <point x="114" y="526"/>
      <point x="69" y="519"/>
      <point x="32" y="499" type="curve"/>
      <point x="54" y="401" type="line"/>
      <point x="67" y="409"/>
      <point x="75" y="412"/>
      <point x="83" y="412" type="curve" smooth="yes"/>
      <point x="96" y="412"/>
      <point x="104" y="404"/>
      <point x="104" y="384" type="curve" smooth="yes"/>
      <point x="104" y="360"/>
      <point x="93" y="340"/>
      <point x="78" y="314" type="curve" smooth="yes"/>
      <point x="62" y="286"/>
      <point x="52" y="254"/>
      <point x="52" y="207" type="curve" smooth="yes"/>
      <point x="52" y="176" type="line" smooth="yes"/>
      <point x="52" y="53"/>
      <point x="116" y="-14"/>
    </contour>
  </outline>
</glyph>
<glyph name="khoKhuat-thai" format="2">
  <advance width="518"/>
  <unicode hex="0E03"/>
  <anchor x="442" y="0" name="bottom"/>
  <anchor x="466" y="506" name="top"/>
  <outline>
    <contour>
      <point x="260" y="-14" type="curve" smooth="yes"/>
      <point x="395" y="-14"/>
      <point x="466" y="53"/>
      <point x="466" y="187" type="curve" smooth="yes"/>
      <point x="466" y="517" type="line"/>
      <point x="306" y="517" type="line"/>
      <point x="306" y="189" type="line" smooth="yes"/>
      <point x="306" y="140"/>
      <point x="296" y="110"/>
      <point x="260" y="110" type="curve" smooth="yes"/>
      <point x="223" y="110"/>
      <point x="213" y="138"/>
      <point x="213" y="193" type="curve" smooth="yes"/>
      <point x="213" y="221" type="line" smooth="yes"/>
      <point x="213" y="278"/>
      <point x="227" y="294"/>
      <point x="243" y="328" type="curve" smooth="yes"/>
      <point x="260" y="365"/>
      <point x="273" y="386"/>
      <point x="273" y="448" type="curve" smooth="yes"/>
      <point x="273" y="517" type="line"/>
      <point x="189" y="517" type="line"/>
      <point x="177" y="483" type="line"/>
      <point x="169" y="474"/>
      <point x="161" y="470"/>
      <point x="154" y="470" type="curve" smooth="yes"/>
      <point x="140" y="470"/>
      <point x="134" y="484"/>
      <point x="134" y="517" type="curve"/>
      <point x="29" y="517" type="line"/>
      <point x="29" y="479" type="line" smooth="yes"/>
      <point x="29" y="415"/>
      <point x="57" y="379"/>
      <point x="97" y="379" type="curve" smooth="yes"/>
      <point x="104" y="379"/>
      <point x="113" y="382"/>
      <point x="122" y="387" type="curve"/>
      <point x="124" y="387" type="line"/>
      <point x="122" y="371"/>
      <point x="106" y="353"/>
      <point x="98" y="341" type="curve" smooth="yes"/>
      <point x="66" y="292"/>
      <point x="51" y="256"/>
      <point x="51" y="202" type="curve" smooth="yes"/>
      <point x="51" y="180" type="line" smooth="yes"/>
      <point x="51" y="57"/>
      <point x="115" y="-14"/>
    </contour>
  </outline>
</glyph>
<glyph name="khoKhwai-thai" format="2">
  <advance width="544"/>
  <unicode hex="0E04"/>
  <note>
uni0E04
</note>
  <anchor x="492" y="1" name="bottom"/>
  <anchor x="475" y="506" name="top"/>
  <outline>
    <contour>
      <point x="52" y="0" type="line"/>
      <point x="210" y="0" type="line"/>
      <point x="210" y="41" type="line" smooth="yes"/>
      <point x="210" y="104"/>
      <point x="226" y="157"/>
      <point x="288" y="157" type="curve" smooth="yes"/>
      <point x="300" y="157" type="line"/>
      <point x="300" y="298" type="line"/>
      <point x="288" y="298" type="line" smooth="yes"/>
      <point x="251" y="298"/>
      <point x="231" y="287"/>
      <point x="214" y="238" type="curve"/>
      <point x="210" y="239" type="line"/>
      <point x="210" y="301" type="line" smooth="yes"/>
      <point x="210" y="364"/>
      <point x="225" y="403"/>
      <point x="271" y="403" type="curve" smooth="yes"/>
      <point x="317" y="403"/>
      <point x="332" y="364"/>
      <point x="332" y="301" type="curve" smooth="yes"/>
      <point x="332" y="0" type="line"/>
      <point x="492" y="0" type="line"/>
      <point x="492" y="299" type="line" smooth="yes"/>
      <point x="492" y="450"/>
      <point x="427" y="531"/>
      <point x="274" y="531" type="curve" smooth="yes"/>
      <point x="120" y="531"/>
      <point x="52" y="450"/>
      <point x="52" y="299" type="curve" smooth="yes"/>
    </contour>
  </outline>
</glyph>
<glyph name="khoKhon-thai" format="2">
  <advance width="556"/>
  <unicode hex="0E05"/>
  <anchor x="503" y="1" name="bottom"/>
  <anchor x="487" y="506" name="top"/>
  <outline>
    <contour>
      <point x="52" y="0" type="line"/>
      <point x="210" y="0" type="line"/>
      <point x="210" y="41" type="line" smooth="yes"/>
      <point x="210" y="104"/>
      <point x="226" y="157"/>
      <point x="298" y="157" type="curve" smooth="yes"/>
      <point x="311" y="157" type="line"/>
      <point x="311" y="298" type="line"/>
      <point x="298" y="298" type="line" smooth="yes"/>
      <point x="251" y="298"/>
      <point x="231" y="287"/>
      <point x="214" y="238" type="curve"/>
      <point x="211" y="239" type="line"/>
      <point x="211" y="352" type="line" smooth="yes"/>
      <point x="211" y="390"/>
      <point x="220" y="402"/>
      <point x="232" y="402" type="curve" smooth="yes"/>
      <point x="244" y="402"/>
      <point x="253" y="389"/>
      <point x="255" y="358" type="curve"/>
      <point x="302" y="358" type="line"/>
      <point x="302" y="389"/>
      <point x="313" y="402"/>
      <point x="325" y="402" type="curve" smooth="yes"/>
      <point x="337" y="402"/>
      <point x="344" y="390"/>
      <point x="344" y="352" type="curve" smooth="yes"/>
      <point x="344" y="0" type="line"/>
      <point x="504" y="0" type="line"/>
      <point x="504" y="400" type="line" smooth="yes"/>
      <point x="504" y="488"/>
      <point x="455" y="531"/>
      <point x="384" y="531" type="curve" smooth="yes"/>
      <point x="331" y="531"/>
      <point x="292" y="509"/>
      <point x="280" y="467" type="curve"/>
      <point x="276" y="467" type="line"/>
      <point x="264" y="509"/>
      <point x="225" y="531"/>
      <point x="172" y="531" type="curve" smooth="yes"/>
      <point x="101" y="531"/>
      <point x="52" y="488"/>
      <point x="52" y="400" type="curve" smooth="yes"/>
    </contour>
  </outline>
</glyph>
<glyph name="khoRakhang-thai" format="2">
  <advance width="542"/>
  <unicode hex="0E06"/>
  <anchor x="483" y="0" name="bottom"/>
  <anchor x="491" y="506" name="top"/>
  <outline>
    <contour>
      <point x="348" y="-9" type="curve" smooth="yes"/>
      <point x="445" y="-9"/>
      <point x="490" y="62"/>
      <point x="490" y="184" type="curve" smooth="yes"/>
      <point x="490" y="517" type="line"/>
      <point x="328" y="517" type="line"/>
      <point x="328" y="223" type="line" smooth="yes"/>
      <point x="328" y="153"/>
      <point x="309" y="130"/>
      <point x="280" y="130" type="curve" smooth="yes"/>
      <point x="245" y="130"/>
      <point x="222" y="165"/>
      <point x="222" y="222" type="curve" smooth="yes"/>
      <point x="222" y="228" type="line" smooth="yes"/>
      <point x="222" y="274"/>
      <point x="236" y="289"/>
      <point x="256" y="328" type="curve" smooth="yes"/>
      <point x="277" y="370"/>
      <point x="287" y="395"/>
      <point x="287" y="448" type="curve" smooth="yes"/>
      <point x="287" y="517" type="line"/>
      <point x="196" y="517" type="line"/>
      <point x="184" y="483" type="line"/>
      <point x="176" y="474"/>
      <point x="168" y="470"/>
      <point x="161" y="470" type="curve" smooth="yes"/>
      <point x="147" y="470"/>
      <point x="141" y="484"/>
      <point x="141" y="517" type="curve"/>
      <point x="35" y="517" type="line"/>
      <point x="35" y="479" type="line" smooth="yes"/>
      <point x="35" y="415"/>
      <point x="63" y="379"/>
      <point x="103" y="379" type="curve" smooth="yes"/>
      <point x="110" y="379"/>
      <point x="119" y="382"/>
      <point x="128" y="387" type="curve"/>
      <point x="130" y="387" type="line"/>
      <point x="128" y="371"/>
      <point x="114" y="357"/>
      <point x="103" y="341" type="curve" smooth="yes"/>
      <point x="69" y="291"/>
      <point x="60" y="253"/>
      <point x="60" y="194" type="curve" smooth="yes"/>
      <point x="60" y="0" type="line"/>
      <point x="176" y="0" type="line"/>
      <point x="197" y="81" type="line"/>
      <point x="206" y="81" type="line"/>
      <point x="225" y="30"/>
      <point x="272" y="-9"/>
    </contour>
  </outline>
</glyph>
<glyph name="ngoNgu-thai" format="2">
  <advance width="469"/>
  <unicode hex="0E07"/>
  <note>
uni0E07
</note>
  <anchor x="364" y="0" name="bottom"/>
  <anchor x="398" y="506" name="top"/>
  <outline>
    <contour>
      <point x="116" y="0" type="line"/>
      <point x="197" y="0" type="line" smooth="yes"/>
      <point x="294" y="0"/>
      <point x="339" y="23"/>
      <point x="371" y="60" type="curve" smooth="yes"/>
      <point x="411" y="107"/>
      <point x="442" y="186"/>
      <point x="442" y="284" type="curve" smooth="yes"/>
      <point x="442" y="365"/>
      <point x="422" y="430"/>
      <point x="385" y="473" type="curve" smooth="yes"/>
      <point x="359" y="504"/>
      <point x="321" y="526"/>
      <point x="258" y="526" type="curve" smooth="yes"/>
      <point x="245" y="526"/>
      <point x="219" y="525"/>
      <point x="194" y="517" type="curve"/>
      <point x="217" y="397" type="line"/>
      <point x="222" y="400"/>
      <point x="229" y="399"/>
      <point x="233" y="399" type="curve" smooth="yes"/>
      <point x="260" y="399"/>
      <point x="276" y="361"/>
      <point x="276" y="273" type="curve" smooth="yes"/>
      <point x="276" y="218"/>
      <point x="270" y="186"/>
      <point x="259" y="156" type="curve" smooth="yes"/>
      <point x="251" y="133"/>
      <point x="244" y="128"/>
      <point x="238" y="128" type="curve" smooth="yes"/>
      <point x="237" y="128" type="line"/>
      <point x="161" y="517" type="line"/>
      <point x="-2" y="517" type="line"/>
    </contour>
  </outline>
</glyph>
<glyph name="choChan-thai" format="2">
  <advance width="465"/>
  <unicode hex="0E08"/>
  <anchor x="383" y="0" name="bottom"/>
  <anchor x="387" y="506" name="top"/>
  <outline>
    <contour>
      <point x="71" y="0" type="line"/>
      <point x="202" y="0" type="line" smooth="yes"/>
      <point x="374" y="0"/>
      <point x="439" y="93"/>
      <point x="439" y="264" type="curve" smooth="yes"/>
      <point x="439" y="446"/>
      <point x="361" y="531"/>
      <point x="200" y="531" type="curve" smooth="yes"/>
      <point x="124" y="531"/>
      <point x="72" y="511"/>
      <point x="34" y="490" type="curve"/>
      <point x="34" y="359" type="line"/>
      <point x="63" y="383"/>
      <point x="106" y="405"/>
      <point x="165" y="405" type="curve" smooth="yes"/>
      <point x="228" y="405"/>
      <point x="276" y="369"/>
      <point x="276" y="260" type="curve" smooth="yes"/>
      <point x="276" y="169"/>
      <point x="250" y="120"/>
      <point x="215" y="120" type="curve" smooth="yes"/>
      <point x="214" y="120" type="line"/>
      <point x="214" y="306" type="line"/>
      <point x="39" y="306" type="line"/>
      <point x="39" y="213" type="line"/>
      <point x="71" y="213" type="line"/>
    </contour>
  </outline>
</glyph>
<glyph name="choChing-thai" format="2">
  <advance width="514"/>
  <unicode hex="0E09"/>
  <anchor x="462" y="0" name="bottom"/>
  <anchor x="454" y="506" name="top"/>
  <outline>
    <contour>
      <point x="185" y="-9" type="curve" smooth="yes"/>
      <point x="253" y="-9"/>
      <point x="292" y="31"/>
      <point x="313" y="76" type="curve"/>
      <point x="322" y="76" type="line"/>
      <point x="343" y="0" type="line"/>
      <point x="462" y="0" type="line"/>
      <point x="462" y="308" type="line" smooth="yes"/>
      <point x="462" y="451"/>
      <point x="402" y="531"/>
      <point x="255" y="531" type="curve" smooth="yes"/>
      <point x="180" y="531"/>
      <point x="110" y="510"/>
      <point x="72" y="490" type="curve"/>
      <point x="72" y="359" type="line"/>
      <point x="101" y="381"/>
      <point x="151" y="405"/>
      <point x="214" y="405" type="curve" smooth="yes"/>
      <point x="267" y="405"/>
      <point x="300" y="378"/>
      <point x="300" y="306" type="curve" smooth="yes"/>
      <point x="300" y="234" type="line" smooth="yes"/>
      <point x="300" y="165"/>
      <point x="278" y="129"/>
      <point x="247" y="129" type="curve" smooth="yes"/>
      <point x="224" y="129"/>
      <point x="210" y="151"/>
      <point x="210" y="206" type="curve" smooth="yes"/>
      <point x="210" y="295" type="line"/>
      <point x="57" y="295" type="line"/>
      <point x="57" y="154" type="line" smooth="yes"/>
      <point x="57" y="38"/>
      <point x="99" y="-9"/>
    </contour>
  </outline>
</glyph>
<glyph name="choChang-thai" format="2">
  <advance width="512"/>
  <unicode hex="0E0A"/>
  <anchor x="446" y="0" name="bottom"/>
  <anchor x="475" y="504" name="top"/>
  <outline>
    <contour>
      <point x="263" y="-14" type="curve" smooth="yes"/>
      <point x="400" y="-14"/>
      <point x="471" y="53"/>
      <point x="471" y="187" type="curve" smooth="yes"/>
      <point x="471" y="270" type="line" smooth="yes"/>
      <point x="471" y="317"/>
      <point x="455" y="351"/>
      <point x="424" y="364" type="curve"/>
      <point x="424" y="368" type="line"/>
      <point x="462" y="385"/>
      <point x="481" y="437"/>
      <point x="481" y="517" type="curve"/>
      <point x="321" y="517" type="line"/>
      <point x="321" y="459"/>
      <point x="309" y="408"/>
      <point x="275" y="408" type="curve" smooth="yes"/>
      <point x="269" y="408" type="line"/>
      <point x="269" y="327" type="line"/>
      <point x="274" y="327" type="line" smooth="yes"/>
      <point x="302" y="327"/>
      <point x="311" y="304"/>
      <point x="311" y="269" type="curve" smooth="yes"/>
      <point x="311" y="189" type="line" smooth="yes"/>
      <point x="311" y="141"/>
      <point x="300" y="110"/>
      <point x="262" y="110" type="curve" smooth="yes"/>
      <point x="225" y="110"/>
      <point x="216" y="138"/>
      <point x="216" y="193" type="curve" smooth="yes"/>
      <point x="216" y="223" type="line" smooth="yes"/>
      <point x="216" y="270"/>
      <point x="224" y="286"/>
      <point x="236" y="317" type="curve" smooth="yes"/>
      <point x="248" y="348"/>
      <point x="253" y="375"/>
      <point x="253" y="411" type="curve" smooth="yes"/>
      <point x="253" y="482"/>
      <point x="224" y="526"/>
      <point x="144" y="526" type="curve" smooth="yes"/>
      <point x="114" y="526"/>
      <point x="69" y="519"/>
      <point x="32" y="499" type="curve"/>
      <point x="54" y="401" type="line"/>
      <point x="67" y="409"/>
      <point x="75" y="412"/>
      <point x="83" y="412" type="curve" smooth="yes"/>
      <point x="96" y="412"/>
      <point x="104" y="404"/>
      <point x="104" y="384" type="curve" smooth="yes"/>
      <point x="104" y="360"/>
      <point x="93" y="340"/>
      <point x="78" y="314" type="curve" smooth="yes"/>
      <point x="62" y="286"/>
      <point x="55" y="253"/>
      <point x="55" y="206" type="curve" smooth="yes"/>
      <point x="55" y="176" type="line" smooth="yes"/>
      <point x="55" y="54"/>
      <point x="124" y="-14"/>
    </contour>
  </outline>
</glyph>
<glyph name="soSo-thai" format="2">
  <advance width="514"/>
  <unicode hex="0E0B"/>
  <note>
uni0E0B
</note>
  <anchor x="448" y="0" name="bottom"/>
  <anchor x="476" y="505" name="top"/>
  <outline>
    <contour>
      <point x="262" y="-14" type="curve" smooth="yes"/>
      <point x="402" y="-14"/>
      <point x="472" y="54"/>
      <point x="472" y="187" type="curve" smooth="yes"/>
      <point x="472" y="267" type="line" smooth="yes"/>
      <point x="472" y="319"/>
      <point x="457" y="352"/>
      <point x="426" y="364" type="curve"/>
      <point x="426" y="368" type="line"/>
      <point x="463" y="386"/>
      <point x="483" y="437"/>
      <point x="483" y="517" type="curve"/>
      <point x="322" y="517" type="line"/>
      <point x="322" y="459"/>
      <point x="314" y="408"/>
      <point x="283" y="408" type="curve" smooth="yes"/>
      <point x="280" y="408" type="line"/>
      <point x="280" y="327" type="line"/>
      <point x="282" y="327" type="line" smooth="yes"/>
      <point x="304" y="327"/>
      <point x="312" y="304"/>
      <point x="312" y="269" type="curve" smooth="yes"/>
      <point x="312" y="189" type="line" smooth="yes"/>
      <point x="312" y="141"/>
      <point x="302" y="110"/>
      <point x="262" y="110" type="curve" smooth="yes"/>
      <point x="223" y="110"/>
      <point x="214" y="137"/>
      <point x="214" y="193" type="curve" smooth="yes"/>
      <point x="214" y="223" type="line" smooth="yes"/>
      <point x="214" y="278"/>
      <point x="228" y="294"/>
      <point x="244" y="328" type="curve" smooth="yes"/>
      <point x="261" y="365"/>
      <point x="265" y="386"/>
      <point x="265" y="448" type="curve" smooth="yes"/>
      <point x="265" y="517" type="line"/>
      <point x="190" y="517" type="line"/>
      <point x="178" y="483" type="line"/>
      <point x="170" y="474"/>
      <point x="162" y="470"/>
      <point x="155" y="470" type="curve" smooth="yes"/>
      <point x="141" y="470"/>
      <point x="135" y="484"/>
      <point x="135" y="517" type="curve"/>
      <point x="29" y="517" type="line"/>
      <point x="29" y="479" type="line" smooth="yes"/>
      <point x="29" y="415"/>
      <point x="57" y="379"/>
      <point x="97" y="379" type="curve" smooth="yes"/>
      <point x="104" y="379"/>
      <point x="113" y="382"/>
      <point x="122" y="387" type="curve"/>
      <point x="124" y="387" type="line"/>
      <point x="122" y="371"/>
      <point x="106" y="353"/>
      <point x="98" y="341" type="curve" smooth="yes"/>
      <point x="66" y="292"/>
      <point x="52" y="256"/>
      <point x="52" y="202" type="curve" smooth="yes"/>
      <point x="52" y="180" type="line" smooth="yes"/>
      <point x="52" y="57"/>
      <point x="119" y="-14"/>
    </contour>
  </outline>
</glyph>
<glyph name="choChoe-thai" format="2">
  <advance width="756"/>
  <unicode hex="0E0C"/>
  <anchor x="687" y="0" name="bottom"/>
  <anchor x="704" y="506" name="top"/>
  <outline>
    <contour>
      <point x="173" y="-9" type="curve" smooth="yes"/>
      <point x="212" y="-9"/>
      <point x="244" y="-1"/>
      <point x="263" y="11" type="curve"/>
      <point x="251" y="102" type="line"/>
      <point x="244" y="99"/>
      <point x="235" y="97"/>
      <point x="226" y="97" type="curve" smooth="yes"/>
      <point x="204" y="97"/>
      <point x="196" y="108"/>
      <point x="196" y="135" type="curve" smooth="yes"/>
      <point x="196" y="185" type="line" smooth="yes"/>
      <point x="196" y="232"/>
      <point x="207" y="246"/>
      <point x="244" y="249" type="curve"/>
      <point x="254" y="315" type="line"/>
      <point x="204" y="351" type="line"/>
      <point x="208" y="387"/>
      <point x="222" y="406"/>
      <point x="253" y="406" type="curve" smooth="yes"/>
      <point x="290" y="406"/>
      <point x="301" y="381"/>
      <point x="301" y="321" type="curve" smooth="yes"/>
      <point x="301" y="0" type="line"/>
      <point x="421" y="0" type="line"/>
      <point x="442" y="81" type="line"/>
      <point x="452" y="81" type="line"/>
      <point x="470" y="30"/>
      <point x="507" y="-9"/>
      <point x="580" y="-9" type="curve" smooth="yes"/>
      <point x="673" y="-9"/>
      <point x="704" y="52"/>
      <point x="704" y="169" type="curve" smooth="yes"/>
      <point x="704" y="517" type="line"/>
      <point x="542" y="517" type="line"/>
      <point x="542" y="207" type="line" smooth="yes"/>
      <point x="542" y="151"/>
      <point x="524" y="130"/>
      <point x="506" y="130" type="curve" smooth="yes"/>
      <point x="479" y="130"/>
      <point x="460" y="174"/>
      <point x="460" y="245" type="curve" smooth="yes"/>
      <point x="460" y="337" type="line" smooth="yes"/>
      <point x="460" y="461"/>
      <point x="397" y="531"/>
      <point x="254" y="531" type="curve" smooth="yes"/>
      <point x="110" y="531"/>
      <point x="37" y="453"/>
      <point x="37" y="354" type="curve" smooth="yes"/>
      <point x="37" y="332" type="line"/>
      <point x="119" y="296" type="line"/>
      <point x="118" y="292" type="line"/>
      <point x="65" y="272"/>
      <point x="39" y="242"/>
      <point x="39" y="170" type="curve" smooth="yes"/>
      <point x="39" y="119" type="line" smooth="yes"/>
      <point x="39" y="35"/>
      <point x="83" y="-9"/>
    </contour>
  </outline>
</glyph>
<glyph name="yoYing-thai" format="2">
  <advance width="764"/>
  <unicode hex="0E0D"/>
  <anchor x="688" y="-165" name="bottom"/>
  <anchor x="708" y="506" name="top"/>
  <outline>
    <contour>
      <point x="474" y="-191" type="curve" smooth="yes"/>
      <point x="628" y="-191"/>
      <point x="708" y="-108"/>
      <point x="708" y="68" type="curve" smooth="yes"/>
      <point x="708" y="517" type="line"/>
      <point x="546" y="517" type="line"/>
      <point x="546" y="262" type="line" smooth="yes"/>
      <point x="546" y="191"/>
      <point x="527" y="146"/>
      <point x="498" y="146" type="curve" smooth="yes"/>
      <point x="479" y="146"/>
      <point x="460" y="168"/>
      <point x="460" y="224" type="curve" smooth="yes"/>
      <point x="460" y="337" type="line" smooth="yes"/>
      <point x="460" y="462"/>
      <point x="397" y="531"/>
      <point x="255" y="531" type="curve" smooth="yes"/>
      <point x="110" y="531"/>
      <point x="37" y="453"/>
      <point x="37" y="354" type="curve" smooth="yes"/>
      <point x="37" y="332" type="line"/>
      <point x="119" y="296" type="line"/>
      <point x="118" y="292" type="line"/>
      <point x="65" y="272"/>
      <point x="39" y="242"/>
      <point x="39" y="170" type="curve" smooth="yes"/>
      <point x="39" y="119" type="line" smooth="yes"/>
      <point x="39" y="35"/>
      <point x="83" y="-9"/>
      <point x="173" y="-9" type="curve" smooth="yes"/>
      <point x="212" y="-9"/>
      <point x="244" y="-1"/>
      <point x="263" y="11" type="curve"/>
      <point x="251" y="102" type="line"/>
      <point x="244" y="99"/>
      <point x="235" y="97"/>
      <point x="226" y="97" type="curve" smooth="yes"/>
      <point x="204" y="97"/>
      <point x="196" y="108"/>
      <point x="196" y="135" type="curve" smooth="yes"/>
      <point x="196" y="185" type="line" smooth="yes"/>
      <point x="196" y="232"/>
      <point x="207" y="246"/>
      <point x="244" y="249" type="curve"/>
      <point x="254" y="315" type="line"/>
      <point x="204" y="351" type="line"/>
      <point x="208" y="387"/>
      <point x="225" y="406"/>
      <point x="252" y="406" type="curve" smooth="yes"/>
      <point x="285" y="406"/>
      <point x="302" y="385"/>
      <point x="302" y="326" type="curve" smooth="yes"/>
      <point x="302" y="171" type="line" smooth="yes"/>
      <point x="302" y="58"/>
      <point x="351" y="8"/>
      <point x="434" y="8" type="curve" smooth="yes"/>
      <point x="495" y="8"/>
      <point x="525" y="37"/>
      <point x="544" y="71" type="curve"/>
      <point x="551" y="71" type="line"/>
      <point x="551" y="42" type="line" smooth="yes"/>
      <point x="551" y="-29"/>
      <point x="516" y="-66"/>
      <point x="444" y="-66" type="curve" smooth="yes"/>
      <point x="391" y="-66"/>
      <point x="350" y="-46"/>
      <point x="329" y="-27" type="curve"/>
      <point x="329" y="-159" type="line"/>
      <point x="371" y="-182"/>
      <point x="424" y="-191"/>
    </contour>
  </outline>
</glyph>
<glyph name="toPatak-thai" format="2">
  <advance width="535"/>
  <unicode hex="0E0F"/>
  <anchor x="483" y="-185" name="bottom"/>
  <anchor x="452" y="506" name="top"/>
  <outline>
    <contour>
      <point x="40" y="-203" type="line"/>
      <point x="160" y="-203" type="line"/>
      <point x="160" y="-200" type="line" smooth="yes"/>
      <point x="160" y="-181"/>
      <point x="162" y="-155"/>
      <point x="185" y="-155" type="curve" smooth="yes"/>
      <point x="207" y="-155"/>
      <point x="222" y="-180"/>
      <point x="230" y="-203" type="curve"/>
      <point x="266" y="-203" type="line"/>
      <point x="299" y="-155" type="line"/>
      <point x="351" y="-203" type="line"/>
      <point x="483" y="-203" type="line"/>
      <point x="483" y="325" type="line"/>
      <point x="483" y="460"/>
      <point x="414" y="531"/>
      <point x="270" y="531" type="curve" smooth="yes"/>
      <point x="123" y="531"/>
      <point x="54" y="452"/>
      <point x="54" y="354" type="curve" smooth="yes"/>
      <point x="54" y="332" type="line"/>
      <point x="136" y="296" type="line"/>
      <point x="135" y="292" type="line"/>
      <point x="94" y="279"/>
      <point x="77" y="245"/>
      <point x="77" y="188" type="curve" smooth="yes"/>
      <point x="77" y="133" type="line" smooth="yes"/>
      <point x="77" y="111"/>
      <point x="69" y="101"/>
      <point x="51" y="101" type="curve" smooth="yes"/>
      <point x="46" y="101"/>
      <point x="41" y="102"/>
      <point x="35" y="105" type="curve"/>
      <point x="21" y="19" type="line"/>
      <point x="40" y="8"/>
      <point x="71" y="-2"/>
      <point x="110" y="-2" type="curve" smooth="yes"/>
      <point x="183" y="-2"/>
      <point x="234" y="31"/>
      <point x="234" y="114" type="curve" smooth="yes"/>
      <point x="234" y="181" type="line" smooth="yes"/>
      <point x="234" y="228"/>
      <point x="238" y="247"/>
      <point x="261" y="249" type="curve"/>
      <point x="271" y="315" type="line"/>
      <point x="221" y="347" type="line"/>
      <point x="224" y="377"/>
      <point x="232" y="403"/>
      <point x="267" y="403" type="curve" smooth="yes"/>
      <point x="309" y="403"/>
      <point x="321" y="373"/>
      <point x="321" y="316" type="curve" smooth="yes"/>
      <point x="321" y="-102" type="line"/>
      <point x="335" y="-97" type="line"/>
      <point x="283" y="-49" type="line"/>
      <point x="243" y="-97" type="line"/>
      <point x="219" y="-55"/>
      <point x="185" y="-34"/>
      <point x="145" y="-34" type="curve" smooth="yes"/>
      <point x="85" y="-34"/>
      <point x="40" y="-74"/>
      <point x="40" y="-167" type="curve" smooth="yes"/>
    </contour>
  </outline>
</glyph>
<glyph name="thoThan-thai" format="2">
  <advance width="474"/>
  <unicode hex="0E10"/>
  <anchor x="441" y="-185" name="bottom"/>
  <anchor x="412" y="506" name="top"/>
  <outline>
    <contour>
      <point x="75" y="0" type="line"/>
      <point x="206" y="0" type="line" smooth="yes"/>
      <point x="374" y="0"/>
      <point x="444" y="93"/>
      <point x="444" y="254" type="curve" smooth="yes"/>
      <point x="444" y="368"/>
      <point x="404" y="429"/>
      <point x="358" y="447" type="curve"/>
      <point x="345" y="511"/>
      <point x="284" y="531"/>
      <point x="207" y="531" type="curve" smooth="yes"/>
      <point x="127" y="531"/>
      <point x="76" y="511"/>
      <point x="38" y="490" type="curve"/>
      <point x="38" y="359" type="line"/>
      <point x="67" y="383"/>
      <point x="109" y="405"/>
      <point x="171" y="405" type="curve" smooth="yes"/>
      <point x="233" y="405"/>
      <point x="280" y="369"/>
      <point x="280" y="260" type="curve" smooth="yes"/>
      <point x="280" y="169"/>
      <point x="254" y="120"/>
      <point x="219" y="120" type="curve" smooth="yes"/>
      <point x="218" y="120" type="line"/>
      <point x="218" y="306" type="line"/>
      <point x="43" y="306" type="line"/>
      <point x="43" y="213" type="line"/>
      <point x="75" y="213" type="line"/>
    </contour>
    <contour>
      <point x="34" y="-203" type="line"/>
      <point x="145" y="-203" type="line"/>
      <point x="145" y="-200" type="line" smooth="yes"/>
      <point x="145" y="-181"/>
      <point x="147" y="-155"/>
      <point x="170" y="-155" type="curve" smooth="yes"/>
      <point x="192" y="-155"/>
      <point x="206" y="-180"/>
      <point x="215" y="-203" type="curve"/>
      <point x="242" y="-203" type="line"/>
      <point x="267" y="-157" type="line"/>
      <point x="308" y="-203" type="line"/>
      <point x="441" y="-203" type="line"/>
      <point x="441" y="-24" type="line"/>
      <point x="312" y="-24" type="line"/>
      <point x="312" y="-106" type="line"/>
      <point x="318" y="-101" type="line"/>
      <point x="265" y="-50" type="line"/>
      <point x="229" y="-101" type="line"/>
      <point x="201" y="-62"/>
      <point x="176" y="-38"/>
      <point x="133" y="-38" type="curve" smooth="yes"/>
      <point x="73" y="-38"/>
      <point x="34" y="-78"/>
      <point x="34" y="-172" type="curve" smooth="yes"/>
    </contour>
    <contour>
      <point x="353" y="404" type="line"/>
      <point x="443" y="433"/>
      <point x="462" y="493"/>
      <point x="462" y="551" type="curve"/>
      <point x="338" y="551" type="line"/>
      <point x="336" y="519"/>
      <point x="321" y="495"/>
      <point x="294" y="476" type="curve"/>
    </contour>
  </outline>
</glyph>
<glyph name="thoNangmontho-thai" format="2">
  <advance width="538"/>
  <unicode hex="0E11"/>
  <anchor x="486" y="0" name="bottom"/>
  <anchor x="460" y="506" name="top"/>
  <outline>
    <contour>
      <point x="58" y="0" type="line"/>
      <point x="220" y="0" type="line"/>
      <point x="220" y="201" type="line" smooth="yes"/>
      <point x="220" y="262"/>
      <point x="229" y="288"/>
      <point x="247" y="327" type="curve" smooth="yes"/>
      <point x="270" y="377"/>
      <point x="282" y="396"/>
      <point x="302" y="396" type="curve" smooth="yes"/>
      <point x="319" y="396"/>
      <point x="324" y="385"/>
      <point x="324" y="359" type="curve" smooth="yes"/>
      <point x="324" y="0" type="line"/>
      <point x="486" y="0" type="line"/>
      <point x="486" y="429" type="line" smooth="yes"/>
      <point x="486" y="500"/>
      <point x="447" y="527"/>
      <point x="387" y="527" type="curve" smooth="yes"/>
      <point x="322" y="527"/>
      <point x="286" y="487"/>
      <point x="265" y="445" type="curve"/>
      <point x="261" y="445" type="line"/>
      <point x="261" y="517" type="line"/>
      <point x="186" y="517" type="line"/>
      <point x="173" y="483" type="line"/>
      <point x="165" y="473"/>
      <point x="157" y="470"/>
      <point x="150" y="470" type="curve" smooth="yes"/>
      <point x="136" y="470"/>
      <point x="129" y="483"/>
      <point x="129" y="517" type="curve"/>
      <point x="29" y="517" type="line"/>
      <point x="29" y="479" type="line" smooth="yes"/>
      <point x="29" y="415"/>
      <point x="58" y="379"/>
      <point x="95" y="379" type="curve" smooth="yes"/>
      <point x="105" y="379"/>
      <point x="111" y="381"/>
      <point x="122" y="387" type="curve"/>
      <point x="124" y="387" type="line"/>
      <point x="122" y="373"/>
      <point x="124" y="386"/>
      <point x="98" y="341" type="curve" smooth="yes"/>
      <point x="65" y="284"/>
      <point x="58" y="251"/>
      <point x="58" y="197" type="curve" smooth="yes"/>
    </contour>
  </outline>
</glyph>
<glyph name="thoPhuthao-thai" format="2">
  <advance width="776"/>
  <unicode hex="0E12"/>
  <anchor x="708" y="0" name="bottom"/>
  <anchor x="725" y="506" name="top"/>
  <outline>
    <contour>
      <point x="222" y="-9" type="curve" smooth="yes"/>
      <point x="249" y="-9"/>
      <point x="265" y="-6"/>
      <point x="283" y="3" type="curve"/>
      <point x="268" y="114" type="line"/>
      <point x="263" y="112"/>
      <point x="255" y="110"/>
      <point x="250" y="110" type="curve" smooth="yes"/>
      <point x="209" y="110"/>
      <point x="197" y="163"/>
      <point x="197" y="267" type="curve" smooth="yes"/>
      <point x="197" y="367"/>
      <point x="206" y="400"/>
      <point x="221" y="400" type="curve" smooth="yes"/>
      <point x="228" y="400"/>
      <point x="236" y="392"/>
      <point x="239" y="358" type="curve"/>
      <point x="287" y="358" type="line"/>
      <point x="290" y="389"/>
      <point x="298" y="400"/>
      <point x="307" y="400" type="curve" smooth="yes"/>
      <point x="316" y="400"/>
      <point x="322" y="391"/>
      <point x="322" y="353" type="curve" smooth="yes"/>
      <point x="322" y="0" type="line"/>
      <point x="442" y="0" type="line"/>
      <point x="463" y="81" type="line"/>
      <point x="472" y="81" type="line"/>
      <point x="491" y="30"/>
      <point x="529" y="-9"/>
      <point x="600" y="-9" type="curve" smooth="yes"/>
      <point x="694" y="-9"/>
      <point x="725" y="52"/>
      <point x="725" y="169" type="curve" smooth="yes"/>
      <point x="725" y="517" type="line"/>
      <point x="563" y="517" type="line"/>
      <point x="563" y="207" type="line" smooth="yes"/>
      <point x="563" y="151"/>
      <point x="545" y="130"/>
      <point x="527" y="130" type="curve" smooth="yes"/>
      <point x="500" y="130"/>
      <point x="480" y="174"/>
      <point x="480" y="245" type="curve" smooth="yes"/>
      <point x="480" y="388" type="line" smooth="yes"/>
      <point x="480" y="477"/>
      <point x="446" y="527"/>
      <point x="371" y="527" type="curve" smooth="yes"/>
      <point x="333" y="527"/>
      <point x="288" y="514"/>
      <point x="269" y="464" type="curve"/>
      <point x="265" y="464" type="line"/>
      <point x="243" y="513"/>
      <point x="213" y="527"/>
      <point x="175" y="527" type="curve" smooth="yes"/>
      <point x="82" y="527"/>
      <point x="35" y="447"/>
      <point x="35" y="265" type="curve" smooth="yes"/>
      <point x="35" y="97"/>
      <point x="79" y="-9"/>
    </contour>
  </outline>
</glyph>
<glyph name="doDek-thai" format="2">
  <advance width="522"/>
  <unicode hex="0E14"/>
  <anchor x="469" y="0" name="bottom"/>
  <anchor x="444" y="506" name="top"/>
  <outline>
    <contour>
      <point x="213" y="-9" type="curve" smooth="yes"/>
      <point x="235" y="-9"/>
      <point x="264" y="-7"/>
      <point x="281" y="3" type="curve"/>
      <point x="266" y="122" type="line"/>
      <point x="259" y="119"/>
      <point x="250" y="117"/>
      <point x="243" y="117" type="curve" smooth="yes"/>
      <point x="212" y="117"/>
      <point x="197" y="170"/>
      <point x="197" y="254" type="curve" smooth="yes"/>
      <point x="197" y="371"/>
      <point x="219" y="403"/>
      <point x="258" y="403" type="curve" smooth="yes"/>
      <point x="291" y="403"/>
      <point x="308" y="374"/>
      <point x="308" y="323" type="curve" smooth="yes"/>
      <point x="308" y="0" type="line"/>
      <point x="470" y="0" type="line"/>
      <point x="470" y="334" type="line" smooth="yes"/>
      <point x="470" y="453"/>
      <point x="416" y="531"/>
      <point x="260" y="531" type="curve" smooth="yes"/>
      <point x="128" y="531"/>
      <point x="31" y="474"/>
      <point x="31" y="251" type="curve" smooth="yes"/>
      <point x="31" y="95"/>
      <point x="82" y="-9"/>
    </contour>
  </outline>
</glyph>
<glyph name="toTao-thai" format="2">
  <advance width="537"/>
  <unicode hex="0E15"/>
  <note>
uni0E15
</note>
  <anchor x="486" y="0" name="bottom"/>
  <anchor x="460" y="506" name="top"/>
  <outline>
    <contour>
      <point x="226" y="-9" type="curve" smooth="yes"/>
      <point x="252" y="-9"/>
      <point x="268" y="-6"/>
      <point x="286" y="3" type="curve"/>
      <point x="271" y="114" type="line"/>
      <point x="265" y="112"/>
      <point x="259" y="110"/>
      <point x="253" y="110" type="curve" smooth="yes"/>
      <point x="213" y="110"/>
      <point x="201" y="164"/>
      <point x="201" y="263" type="curve" smooth="yes"/>
      <point x="201" y="364"/>
      <point x="209" y="400"/>
      <point x="222" y="400" type="curve" smooth="yes"/>
      <point x="228" y="400"/>
      <point x="234" y="397"/>
      <point x="238" y="364" type="curve"/>
      <point x="294" y="364" type="line"/>
      <point x="298" y="397"/>
      <point x="304" y="400"/>
      <point x="311" y="400" type="curve" smooth="yes"/>
      <point x="318" y="400"/>
      <point x="323" y="390"/>
      <point x="323" y="353" type="curve" smooth="yes"/>
      <point x="323" y="0" type="line"/>
      <point x="485" y="0" type="line"/>
      <point x="485" y="388" type="line" smooth="yes"/>
      <point x="485" y="477"/>
      <point x="451" y="527"/>
      <point x="373" y="527" type="curve" smooth="yes"/>
      <point x="335" y="527"/>
      <point x="290" y="514"/>
      <point x="271" y="464" type="curve"/>
      <point x="268" y="464" type="line"/>
      <point x="245" y="513"/>
      <point x="216" y="527"/>
      <point x="178" y="527" type="curve" smooth="yes"/>
      <point x="81" y="527"/>
      <point x="35" y="447"/>
      <point x="35" y="264" type="curve" smooth="yes"/>
      <point x="35" y="98"/>
      <point x="79" y="-9"/>
    </contour>
  </outline>
</glyph>
<glyph name="thoThung-thai" format="2">
  <advance width="518"/>
  <unicode hex="0E16"/>
  <anchor x="466" y="0" name="bottom"/>
  <anchor x="449" y="506" name="top"/>
  <outline>
    <contour>
      <point x="173" y="-9" type="curve" smooth="yes"/>
      <point x="212" y="-9"/>
      <point x="244" y="-1"/>
      <point x="263" y="11" type="curve"/>
      <point x="251" y="102" type="line"/>
      <point x="244" y="99"/>
      <point x="235" y="97"/>
      <point x="226" y="97" type="curve" smooth="yes"/>
      <point x="204" y="97"/>
      <point x="196" y="108"/>
      <point x="196" y="135" type="curve" smooth="yes"/>
      <point x="196" y="186" type="line" smooth="yes"/>
      <point x="196" y="233"/>
      <point x="207" y="246"/>
      <point x="244" y="249" type="curve"/>
      <point x="254" y="314" type="line"/>
      <point x="204" y="347" type="line"/>
      <point x="207" y="377"/>
      <point x="215" y="403"/>
      <point x="250" y="403" type="curve" smooth="yes"/>
      <point x="292" y="403"/>
      <point x="304" y="373"/>
      <point x="304" y="316" type="curve" smooth="yes"/>
      <point x="304" y="0" type="line"/>
      <point x="466" y="0" type="line"/>
      <point x="466" y="325" type="line" smooth="yes"/>
      <point x="466" y="460"/>
      <point x="396" y="531"/>
      <point x="255" y="531" type="curve" smooth="yes"/>
      <point x="111" y="531"/>
      <point x="37" y="452"/>
      <point x="37" y="354" type="curve" smooth="yes"/>
      <point x="37" y="332" type="line"/>
      <point x="119" y="296" type="line"/>
      <point x="118" y="292" type="line"/>
      <point x="65" y="272"/>
      <point x="39" y="238"/>
      <point x="39" y="166" type="curve" smooth="yes"/>
      <point x="39" y="119" type="line" smooth="yes"/>
      <point x="39" y="35"/>
      <point x="83" y="-9"/>
    </contour>
  </outline>
</glyph>
<glyph name="thoThahan-thai" format="2">
  <advance width="541"/>
  <unicode hex="0E17"/>
  <anchor x="489" y="0" name="bottom"/>
  <anchor x="463" y="506" name="top"/>
  <outline>
    <contour>
      <point x="57" y="0" type="line"/>
      <point x="219" y="0" type="line"/>
      <point x="219" y="231" type="line" smooth="yes"/>
      <point x="219" y="340"/>
      <point x="241" y="388"/>
      <point x="279" y="388" type="curve" smooth="yes"/>
      <point x="310" y="388"/>
      <point x="327" y="362"/>
      <point x="327" y="294" type="curve" smooth="yes"/>
      <point x="327" y="0" type="line"/>
      <point x="489" y="0" type="line"/>
      <point x="489" y="329" type="line" smooth="yes"/>
      <point x="489" y="462"/>
      <point x="443" y="527"/>
      <point x="337" y="527" type="curve" smooth="yes"/>
      <point x="264" y="527"/>
      <point x="223" y="486"/>
      <point x="206" y="436" type="curve"/>
      <point x="197" y="436" type="line"/>
      <point x="177" y="517" type="line"/>
      <point x="57" y="517" type="line"/>
    </contour>
  </outline>
</glyph>
<glyph name="thoThong-thai" format="2">
  <advance width="457"/>
  <unicode hex="0E18"/>
  <anchor x="383" y="0" name="bottom"/>
  <anchor x="417" y="506" name="top"/>
  <outline>
    <contour>
      <point x="238" y="-14" type="curve" smooth="yes"/>
      <point x="392" y="-14"/>
      <point x="432" y="63"/>
      <point x="432" y="161" type="curve" smooth="yes"/>
      <point x="432" y="262"/>
      <point x="400" y="306"/>
      <point x="307" y="339" type="curve" smooth="yes"/>
      <point x="241" y="363"/>
      <point x="193" y="363"/>
      <point x="193" y="390" type="curve" smooth="yes"/>
      <point x="193" y="410"/>
      <point x="213" y="415"/>
      <point x="231" y="415" type="curve" smooth="yes"/>
      <point x="289" y="415"/>
      <point x="361" y="395"/>
      <point x="393" y="382" type="curve"/>
      <point x="393" y="501" type="line"/>
      <point x="364" y="515"/>
      <point x="307" y="531"/>
      <point x="235" y="531" type="curve" smooth="yes"/>
      <point x="124" y="531"/>
      <point x="31" y="493"/>
      <point x="31" y="382" type="curve" smooth="yes"/>
      <point x="31" y="293"/>
      <point x="86" y="266"/>
      <point x="163" y="241" type="curve" smooth="yes"/>
      <point x="234" y="218"/>
      <point x="280" y="214"/>
      <point x="280" y="158" type="curve" smooth="yes"/>
      <point x="280" y="112"/>
      <point x="261" y="96"/>
      <point x="226" y="96" type="curve" smooth="yes"/>
      <point x="211" y="96"/>
      <point x="196" y="100"/>
      <point x="178" y="107" type="curve"/>
      <point x="178" y="224" type="line"/>
      <point x="45" y="224" type="line"/>
      <point x="45" y="24" type="line"/>
      <point x="102" y="2"/>
      <point x="174" y="-14"/>
    </contour>
  </outline>
</glyph>
<glyph name="noNu-thai" format="2">
  <advance width="540"/>
  <unicode hex="0E19"/>
  <note>
uni0E19
</note>
  <anchor x="484" y="0" name="bottom"/>
  <anchor x="484" y="506" name="top"/>
  <outline>
    <contour>
      <point x="199" y="-9" type="curve" smooth="yes"/>
      <point x="281" y="-9"/>
      <point x="317" y="31"/>
      <point x="334" y="81" type="curve"/>
      <point x="344" y="81" type="line"/>
      <point x="365" y="0" type="line"/>
      <point x="484" y="0" type="line"/>
      <point x="484" y="517" type="line"/>
      <point x="322" y="517" type="line"/>
      <point x="322" y="286" type="line" smooth="yes"/>
      <point x="322" y="174"/>
      <point x="300" y="130"/>
      <point x="260" y="130" type="curve" smooth="yes"/>
      <point x="231" y="130"/>
      <point x="214" y="156"/>
      <point x="214" y="223" type="curve" smooth="yes"/>
      <point x="214" y="517" type="line"/>
      <point x="52" y="517" type="line"/>
      <point x="52" y="193" type="line" smooth="yes"/>
      <point x="52" y="62"/>
      <point x="98" y="-9"/>
    </contour>
  </outline>
</glyph>
<glyph name="boBaimai-thai" format="2">
  <advance width="532"/>
  <unicode hex="0E1A"/>
  <note>
uni0E1A
</note>
  <guideline x="365" y="328" angle="0"/>
  <anchor x="456" y="0" name="bottom"/>
  <anchor x="480" y="506" name="top"/>
  <outline>
    <contour>
      <point x="266" y="-14" type="curve" smooth="yes"/>
      <point x="415" y="-14"/>
      <point x="480" y="68"/>
      <point x="480" y="218" type="curve" smooth="yes"/>
      <point x="480" y="517" type="line"/>
      <point x="318" y="517" type="line"/>
      <point x="318" y="208" type="line" smooth="yes"/>
      <point x="318" y="146"/>
      <point x="303" y="114"/>
      <point x="266" y="114" type="curve" smooth="yes"/>
      <point x="229" y="114"/>
      <point x="214" y="146"/>
      <point x="214" y="208" type="curve" smooth="yes"/>
      <point x="214" y="517" type="line"/>
      <point x="52" y="517" type="line"/>
      <point x="52" y="218" type="line" smooth="yes"/>
      <point x="52" y="68"/>
      <point x="118" y="-14"/>
    </contour>
  </outline>
</glyph>
<glyph name="poPla-thai" format="2">
  <advance width="534"/>
  <unicode hex="0E1B"/>
  <note>
uni0E1B
</note>
  <anchor x="456" y="0" name="bottom"/>
  <anchor x="288" y="506" name="top"/>
  <outline>
    <contour>
      <point x="266" y="-14" type="curve" smooth="yes"/>
      <point x="415" y="-14"/>
      <point x="480" y="68"/>
      <point x="480" y="218" type="curve" smooth="yes"/>
      <point x="480" y="703" type="line"/>
      <point x="318" y="703" type="line"/>
      <point x="318" y="208" type="line" smooth="yes"/>
      <point x="318" y="146"/>
      <point x="303" y="114"/>
      <point x="266" y="114" type="curve" smooth="yes"/>
      <point x="229" y="114"/>
      <point x="214" y="146"/>
      <point x="214" y="208" type="curve" smooth="yes"/>
      <point x="214" y="517" type="line"/>
      <point x="52" y="517" type="line"/>
      <point x="52" y="218" type="line" smooth="yes"/>
      <point x="52" y="68"/>
      <point x="118" y="-14"/>
    </contour>
  </outline>
</glyph>
<glyph name="foFa-thai" format="2">
  <advance width="566"/>
  <unicode hex="0E1D"/>
  <anchor x="510" y="0" name="bottom"/>
  <anchor x="323" y="506" name="top"/>
  <outline>
    <contour>
      <point x="53" y="0" type="line"/>
      <point x="212" y="0" type="line"/>
      <point x="280" y="180" type="line"/>
      <point x="283" y="180" type="line"/>
      <point x="351" y="0" type="line"/>
      <point x="510" y="0" type="line"/>
      <point x="510" y="703" type="line"/>
      <point x="362" y="703" type="line"/>
      <point x="362" y="318" type="line" smooth="yes"/>
      <point x="362" y="288"/>
      <point x="364" y="247"/>
      <point x="371" y="179" type="curve"/>
      <point x="367" y="179" type="line"/>
      <point x="348" y="229"/>
      <point x="342" y="254"/>
      <point x="323" y="297" type="curve" smooth="yes"/>
      <point x="303" y="342" type="line"/>
      <point x="259" y="342" type="line"/>
      <point x="240" y="297" type="line" smooth="yes"/>
      <point x="229" y="271"/>
      <point x="218" y="241"/>
      <point x="196" y="179" type="curve"/>
      <point x="192" y="179" type="line"/>
      <point x="199" y="247"/>
      <point x="201" y="288"/>
      <point x="201" y="318" type="curve" smooth="yes"/>
      <point x="201" y="375" type="line" smooth="yes"/>
      <point x="201" y="397"/>
      <point x="206" y="410"/>
      <point x="221" y="410" type="curve" smooth="yes"/>
      <point x="225" y="410"/>
      <point x="233" y="410"/>
      <point x="239" y="407" type="curve"/>
      <point x="261" y="508" type="line"/>
      <point x="245" y="517"/>
      <point x="220" y="527"/>
      <point x="174" y="527" type="curve" smooth="yes"/>
      <point x="97" y="527"/>
      <point x="53" y="496"/>
      <point x="53" y="395" type="curve" smooth="yes"/>
    </contour>
  </outline>
</glyph>
<glyph name="phoPhan-thai" format="2">
  <advance width="603"/>
  <unicode hex="0E1E"/>
  <note>
uni0E1E
</note>
  <anchor x="512" y="0" name="bottom"/>
  <anchor x="554" y="506" name="top"/>
  <outline>
    <contour>
      <point x="91" y="0" type="line"/>
      <point x="244" y="0" type="line"/>
      <point x="278" y="151" type="line" smooth="yes"/>
      <point x="291" y="211"/>
      <point x="296" y="246"/>
      <point x="300" y="287" type="curve"/>
      <point x="303" y="287" type="line"/>
      <point x="306" y="246"/>
      <point x="308" y="207"/>
      <point x="320" y="151" type="curve" smooth="yes"/>
      <point x="353" y="0" type="line"/>
      <point x="512" y="0" type="line"/>
      <point x="584" y="517" type="line"/>
      <point x="430" y="517" type="line"/>
      <point x="417" y="386" type="line" smooth="yes"/>
      <point x="414" y="357"/>
      <point x="410" y="305"/>
      <point x="407" y="239" type="curve"/>
      <point x="405" y="239" type="line"/>
      <point x="392" y="305"/>
      <point x="384" y="357"/>
      <point x="376" y="389" type="curve" smooth="yes"/>
      <point x="344" y="517" type="line"/>
      <point x="259" y="517" type="line"/>
      <point x="226" y="389" type="line" smooth="yes"/>
      <point x="218" y="357"/>
      <point x="211" y="305"/>
      <point x="198" y="239" type="curve"/>
      <point x="195" y="239" type="line"/>
      <point x="193" y="305"/>
      <point x="189" y="357"/>
      <point x="186" y="386" type="curve" smooth="yes"/>
      <point x="173" y="517" type="line"/>
      <point x="19" y="517" type="line"/>
    </contour>
  </outline>
</glyph>
<glyph name="foFan-thai" format="2">
  <advance width="599"/>
  <unicode hex="0E1F"/>
  <anchor x="512" y="0" name="bottom"/>
  <anchor x="381" y="506" name="top"/>
  <outline>
    <contour>
      <point x="92" y="0" type="line"/>
      <point x="244" y="0" type="line"/>
      <point x="276" y="151" type="line" smooth="yes"/>
      <point x="287" y="206"/>
      <point x="293" y="246"/>
      <point x="298" y="287" type="curve"/>
      <point x="301" y="287" type="line"/>
      <point x="305" y="246"/>
      <point x="311" y="206"/>
      <point x="322" y="151" type="curve" smooth="yes"/>
      <point x="354" y="0" type="line"/>
      <point x="512" y="0" type="line"/>
      <point x="599" y="703" type="line"/>
      <point x="444" y="703" type="line"/>
      <point x="419" y="386" type="line" smooth="yes"/>
      <point x="414" y="320"/>
      <point x="411" y="304"/>
      <point x="408" y="239" type="curve"/>
      <point x="406" y="239" type="line"/>
      <point x="395" y="299"/>
      <point x="384" y="351"/>
      <point x="375" y="389" type="curve" smooth="yes"/>
      <point x="345" y="517" type="line"/>
      <point x="258" y="517" type="line"/>
      <point x="230" y="389" type="line" smooth="yes"/>
      <point x="214" y="314"/>
      <point x="210" y="299"/>
      <point x="198" y="239" type="curve"/>
      <point x="196" y="239" type="line"/>
      <point x="193" y="303"/>
      <point x="189" y="362"/>
      <point x="187" y="386" type="curve" smooth="yes"/>
      <point x="173" y="517" type="line"/>
      <point x="19" y="517" type="line"/>
    </contour>
  </outline>
</glyph>
<glyph name="phoSamphao-thai" format="2">
  <advance width="535"/>
  <unicode hex="0E20"/>
  <anchor x="483" y="0" name="bottom"/>
  <anchor x="466" y="506" name="top"/>
  <outline>
    <contour>
      <point x="110" y="-9" type="curve" smooth="yes"/>
      <point x="183" y="-9"/>
      <point x="234" y="24"/>
      <point x="234" y="106" type="curve" smooth="yes"/>
      <point x="234" y="181" type="line" smooth="yes"/>
      <point x="234" y="228"/>
      <point x="238" y="247"/>
      <point x="261" y="249" type="curve"/>
      <point x="271" y="315" type="line"/>
      <point x="221" y="347" type="line"/>
      <point x="224" y="377"/>
      <point x="232" y="403"/>
      <point x="267" y="403" type="curve" smooth="yes"/>
      <point x="309" y="403"/>
      <point x="321" y="373"/>
      <point x="321" y="316" type="curve" smooth="yes"/>
      <point x="321" y="0" type="line"/>
      <point x="483" y="0" type="line"/>
      <point x="483" y="325" type="line" smooth="yes"/>
      <point x="483" y="460"/>
      <point x="414" y="531"/>
      <point x="270" y="531" type="curve" smooth="yes"/>
      <point x="123" y="531"/>
      <point x="54" y="452"/>
      <point x="54" y="354" type="curve" smooth="yes"/>
      <point x="54" y="332" type="line"/>
      <point x="136" y="296" type="line"/>
      <point x="135" y="292" type="line"/>
      <point x="94" y="279"/>
      <point x="77" y="245"/>
      <point x="77" y="188" type="curve" smooth="yes"/>
      <point x="77" y="125" type="line" smooth="yes"/>
      <point x="77" y="103"/>
      <point x="69" y="93"/>
      <point x="51" y="93" type="curve" smooth="yes"/>
      <point x="46" y="93"/>
      <point x="41" y="93"/>
      <point x="35" y="96" type="curve"/>
      <point x="21" y="12" type="line"/>
      <point x="40" y="0"/>
      <point x="71" y="-9"/>
    </contour>
  </outline>
</glyph>
<glyph name="moMa-thai" format="2">
  <advance width="540"/>
  <unicode hex="0E21"/>
  <note>
uni0E21
</note>
  <anchor x="480" y="0" name="bottom"/>
  <anchor x="488" y="506" name="top"/>
  <outline>
    <contour>
      <point x="346" y="-9" type="curve" smooth="yes"/>
      <point x="443" y="-9"/>
      <point x="488" y="62"/>
      <point x="488" y="184" type="curve" smooth="yes"/>
      <point x="488" y="517" type="line"/>
      <point x="326" y="517" type="line"/>
      <point x="326" y="223" type="line" smooth="yes"/>
      <point x="326" y="156"/>
      <point x="309" y="130"/>
      <point x="280" y="130" type="curve" smooth="yes"/>
      <point x="240" y="130"/>
      <point x="218" y="174"/>
      <point x="218" y="286" type="curve" smooth="yes"/>
      <point x="218" y="517" type="line"/>
      <point x="56" y="517" type="line"/>
      <point x="56" y="0" type="line"/>
      <point x="175" y="0" type="line"/>
      <point x="196" y="81" type="line"/>
      <point x="205" y="81" type="line"/>
      <point x="224" y="30"/>
      <point x="264" y="-9"/>
    </contour>
  </outline>
</glyph>
<glyph name="yoYak-thai" format="2">
  <advance width="518"/>
  <unicode hex="0E22"/>
  <note>
uni0E22
</note>
  <anchor x="441" y="0" name="bottom"/>
  <anchor x="466" y="506" name="top"/>
  <outline>
    <contour>
      <point x="246" y="-14" type="curve" smooth="yes"/>
      <point x="398" y="-14"/>
      <point x="466" y="49"/>
      <point x="466" y="177" type="curve" smooth="yes"/>
      <point x="466" y="517" type="line"/>
      <point x="304" y="517" type="line"/>
      <point x="304" y="173" type="line" smooth="yes"/>
      <point x="304" y="137"/>
      <point x="291" y="106"/>
      <point x="250" y="106" type="curve" smooth="yes"/>
      <point x="208" y="106"/>
      <point x="197" y="140"/>
      <point x="197" y="170" type="curve" smooth="yes"/>
      <point x="197" y="205"/>
      <point x="214" y="222"/>
      <point x="244" y="222" type="curve" smooth="yes"/>
      <point x="262" y="222" type="line"/>
      <point x="262" y="317" type="line"/>
      <point x="244" y="317" type="line" smooth="yes"/>
      <point x="220" y="317"/>
      <point x="195" y="327"/>
      <point x="195" y="367" type="curve" smooth="yes"/>
      <point x="195" y="393"/>
      <point x="206" y="410"/>
      <point x="229" y="410" type="curve" smooth="yes"/>
      <point x="239" y="410"/>
      <point x="250" y="407"/>
      <point x="255" y="404" type="curve"/>
      <point x="279" y="510" type="line"/>
      <point x="260" y="519"/>
      <point x="224" y="526"/>
      <point x="185" y="526" type="curve" smooth="yes"/>
      <point x="77" y="526"/>
      <point x="35" y="465"/>
      <point x="35" y="394" type="curve" smooth="yes"/>
      <point x="35" y="327"/>
      <point x="67" y="296"/>
      <point x="107" y="280" type="curve"/>
      <point x="107" y="275" type="line"/>
      <point x="72" y="263"/>
      <point x="33" y="231"/>
      <point x="33" y="150" type="curve" smooth="yes"/>
      <point x="33" y="53"/>
      <point x="92" y="-14"/>
    </contour>
  </outline>
</glyph>
<glyph name="roRua-thai" format="2">
  <advance width="435"/>
  <unicode hex="0E23"/>
  <note>
uni0E23
</note>
  <anchor x="364" y="0" name="bottom"/>
  <anchor x="373" y="506" name="top"/>
  <outline>
    <contour>
      <point x="224" y="-14" type="curve" smooth="yes"/>
      <point x="367" y="-14"/>
      <point x="409" y="66"/>
      <point x="409" y="161" type="curve" smooth="yes"/>
      <point x="409" y="239"/>
      <point x="381" y="271"/>
      <point x="291" y="316" type="curve" smooth="yes"/>
      <point x="231" y="346"/>
      <point x="202" y="355"/>
      <point x="202" y="379" type="curve" smooth="yes"/>
      <point x="202" y="396"/>
      <point x="218" y="409"/>
      <point x="246" y="409" type="curve" smooth="yes"/>
      <point x="280" y="409"/>
      <point x="347" y="390"/>
      <point x="374" y="376" type="curve"/>
      <point x="374" y="501" type="line"/>
      <point x="346" y="516"/>
      <point x="292" y="531"/>
      <point x="231" y="531" type="curve" smooth="yes"/>
      <point x="127" y="531"/>
      <point x="40" y="488"/>
      <point x="40" y="370" type="curve" smooth="yes"/>
      <point x="40" y="282"/>
      <point x="89" y="250"/>
      <point x="157" y="214" type="curve" smooth="yes"/>
      <point x="219" y="181"/>
      <point x="247" y="170"/>
      <point x="247" y="144" type="curve" smooth="yes"/>
      <point x="247" y="122"/>
      <point x="229" y="111"/>
      <point x="203" y="111" type="curve" smooth="yes"/>
      <point x="162" y="111"/>
      <point x="102" y="139"/>
      <point x="69" y="164" type="curve"/>
      <point x="24" y="38" type="line"/>
      <point x="82" y="3"/>
      <point x="158" y="-14"/>
    </contour>
  </outline>
</glyph>
<glyph name="ru-thai" format="2">
  <advance width="522"/>
  <unicode hex="0E24"/>
  <anchor x="470" y="-185" name="bottom"/>
  <anchor x="453" y="506" name="top"/>
  <outline>
    <contour>
      <point x="308" y="-203" type="line"/>
      <point x="470" y="-203" type="line"/>
      <point x="470" y="94" type="line"/>
      <point x="308" y="94" type="line"/>
    </contour>
    <component base="thoThung-thai" xOffset="4"/>
  </outline>
</glyph>
<glyph name="loLing-thai" format="2">
  <advance width="500"/>
  <unicode hex="0E25"/>
  <anchor x="448" y="0" name="bottom"/>
  <anchor x="438" y="506" name="top"/>
  <outline>
    <contour>
      <point x="289" y="0" type="line"/>
      <point x="448" y="0" type="line"/>
      <point x="448" y="325" type="line" smooth="yes"/>
      <point x="448" y="485"/>
      <point x="347" y="531"/>
      <point x="240" y="531" type="curve" smooth="yes"/>
      <point x="162" y="531"/>
      <point x="99" y="507"/>
      <point x="69" y="489" type="curve"/>
      <point x="69" y="360" type="line"/>
      <point x="100" y="384"/>
      <point x="166" y="409"/>
      <point x="218" y="409" type="curve" smooth="yes"/>
      <point x="265" y="409"/>
      <point x="289" y="388"/>
      <point x="289" y="333" type="curve" smooth="yes"/>
    </contour>
    <contour>
      <point x="168" y="-9" type="curve" smooth="yes"/>
      <point x="199" y="-9"/>
      <point x="233" y="-3"/>
      <point x="252" y="5" type="curve"/>
      <point x="242" y="100" type="line"/>
      <point x="233" y="96"/>
      <point x="227" y="95"/>
      <point x="221" y="95" type="curve" smooth="yes"/>
      <point x="199" y="95"/>
      <point x="186" y="110"/>
      <point x="186" y="144" type="curve" smooth="yes"/>
      <point x="186" y="172"/>
      <point x="196" y="197"/>
      <point x="239" y="203" type="curve" smooth="yes"/>
      <point x="314" y="213" type="line"/>
      <point x="314" y="326" type="line"/>
      <point x="222" y="316" type="line" smooth="yes"/>
      <point x="82" y="301"/>
      <point x="26" y="240"/>
      <point x="26" y="140" type="curve" smooth="yes"/>
      <point x="26" y="47"/>
      <point x="75" y="-9"/>
    </contour>
  </outline>
</glyph>
<glyph name="lu-thai" format="2">
  <advance width="535"/>
  <unicode hex="0E26"/>
  <anchor x="483" y="-185" name="bottom"/>
  <anchor x="448" y="506" name="top"/>
  <outline>
    <contour>
      <point x="321" y="-203" type="line"/>
      <point x="483" y="-203" type="line"/>
      <point x="483" y="94" type="line"/>
      <point x="321" y="94" type="line"/>
    </contour>
    <component base="phoSamphao-thai"/>
  </outline>
</glyph>
<glyph name="woWaen-thai" format="2">
  <advance width="427"/>
  <unicode hex="0E27"/>
  <anchor x="342" y="0" name="bottom"/>
  <anchor x="396" y="506" name="top"/>
  <outline>
    <contour>
      <point x="189" y="-14" type="curve" smooth="yes"/>
      <point x="317" y="-14"/>
      <point x="396" y="78"/>
      <point x="396" y="261" type="curve" smooth="yes"/>
      <point x="396" y="431"/>
      <point x="330" y="531"/>
      <point x="183" y="531" type="curve" smooth="yes"/>
      <point x="126" y="531"/>
      <point x="81" y="519"/>
      <point x="46" y="501" type="curve"/>
      <point x="46" y="372" type="line"/>
      <point x="70" y="389"/>
      <point x="113" y="403"/>
      <point x="149" y="403" type="curve" smooth="yes"/>
      <point x="204" y="403"/>
      <point x="230" y="354"/>
      <point x="230" y="261" type="curve" smooth="yes"/>
      <point x="230" y="162"/>
      <point x="199" y="114"/>
      <point x="159" y="114" type="curve" smooth="yes"/>
      <point x="133" y="114"/>
      <point x="91" y="129"/>
      <point x="68" y="145" type="curve"/>
      <point x="28" y="31" type="line"/>
      <point x="66" y="4"/>
      <point x="125" y="-14"/>
    </contour>
  </outline>
</glyph>
<glyph name="soSala-thai" format="2">
  <advance width="548"/>
  <unicode hex="0E28"/>
  <anchor x="494" y="0" name="bottom"/>
  <anchor x="456" y="506" name="top"/>
  <outline>
    <contour>
      <point x="52" y="0" type="line"/>
      <point x="212" y="0" type="line"/>
      <point x="212" y="54" type="line" smooth="yes"/>
      <point x="212" y="117"/>
      <point x="227" y="170"/>
      <point x="289" y="170" type="curve" smooth="yes"/>
      <point x="302" y="170" type="line"/>
      <point x="302" y="286" type="line"/>
      <point x="289" y="286" type="line" smooth="yes"/>
      <point x="253" y="286"/>
      <point x="233" y="275"/>
      <point x="216" y="226" type="curve"/>
      <point x="212" y="227" type="line"/>
      <point x="212" y="301" type="line" smooth="yes"/>
      <point x="212" y="364"/>
      <point x="227" y="403"/>
      <point x="273" y="403" type="curve" smooth="yes"/>
      <point x="319" y="403"/>
      <point x="333" y="364"/>
      <point x="333" y="301" type="curve" smooth="yes"/>
      <point x="333" y="0" type="line"/>
      <point x="494" y="0" type="line"/>
      <point x="494" y="298" type="line" smooth="yes"/>
      <point x="494" y="378"/>
      <point x="475" y="439"/>
      <point x="414" y="462" type="curve"/>
      <point x="390" y="513"/>
      <point x="336" y="531"/>
      <point x="276" y="531" type="curve" smooth="yes"/>
      <point x="120" y="531"/>
      <point x="52" y="450"/>
      <point x="52" y="299" type="curve" smooth="yes"/>
    </contour>
    <contour>
      <point x="422" y="404" type="line"/>
      <point x="512" y="433"/>
      <point x="531" y="493"/>
      <point x="531" y="551" type="curve"/>
      <point x="407" y="551" type="line"/>
      <point x="405" y="519"/>
      <point x="390" y="495"/>
      <point x="363" y="476" type="curve"/>
    </contour>
  </outline>
</glyph>
<glyph name="soRusi-thai" format="2">
  <advance width="574"/>
  <unicode hex="0E29"/>
  <anchor x="483" y="0" name="bottom"/>
  <anchor x="506" y="506" name="top"/>
  <outline>
    <contour>
      <point x="279" y="-14" type="curve" smooth="yes"/>
      <point x="441" y="-14"/>
      <point x="507" y="69"/>
      <point x="507" y="219" type="curve" smooth="yes"/>
      <point x="507" y="517" type="line"/>
      <point x="347" y="517" type="line"/>
      <point x="347" y="209" type="line" smooth="yes"/>
      <point x="347" y="139"/>
      <point x="330" y="112"/>
      <point x="282" y="112" type="curve" smooth="yes"/>
      <point x="229" y="112"/>
      <point x="212" y="148"/>
      <point x="212" y="209" type="curve" smooth="yes"/>
      <point x="212" y="517" type="line"/>
      <point x="52" y="517" type="line"/>
      <point x="52" y="219" type="line" smooth="yes"/>
      <point x="52" y="69"/>
      <point x="118" y="-14"/>
    </contour>
    <contour>
      <point x="331" y="203" type="curve" smooth="yes"/>
      <point x="545" y="203" type="line"/>
      <point x="545" y="296" type="line"/>
      <point x="359" y="296" type="line" smooth="yes"/>
      <point x="334" y="296"/>
      <point x="327" y="311"/>
      <point x="327" y="328" type="curve" smooth="yes"/>
      <point x="327" y="337"/>
      <point x="329" y="351"/>
      <point x="332" y="359" type="curve"/>
      <point x="242" y="378" type="line"/>
      <point x="229" y="362"/>
      <point x="223" y="332"/>
      <point x="223" y="308" type="curve" smooth="yes"/>
      <point x="223" y="258"/>
      <point x="248" y="203"/>
    </contour>
  </outline>
</glyph>
<glyph name="soSua-thai" format="2">
  <advance width="501"/>
  <unicode hex="0E2A"/>
  <note>
uni0E2A
</note>
  <anchor x="448" y="0" name="bottom"/>
  <anchor x="448" y="506" name="top"/>
  <outline>
    <contour>
      <point x="289" y="0" type="line"/>
      <point x="448" y="0" type="line"/>
      <point x="448" y="325" type="line" smooth="yes"/>
      <point x="448" y="402"/>
      <point x="425" y="453"/>
      <point x="373" y="468" type="curve"/>
      <point x="351" y="519"/>
      <point x="298" y="531"/>
      <point x="240" y="531" type="curve" smooth="yes"/>
      <point x="162" y="531"/>
      <point x="99" y="507"/>
      <point x="69" y="489" type="curve"/>
      <point x="69" y="360" type="line"/>
      <point x="102" y="385"/>
      <point x="165" y="409"/>
      <point x="221" y="409" type="curve" smooth="yes"/>
      <point x="265" y="409"/>
      <point x="289" y="387"/>
      <point x="289" y="333" type="curve" smooth="yes"/>
    </contour>
    <contour>
      <point x="168" y="-9" type="curve" smooth="yes"/>
      <point x="199" y="-9"/>
      <point x="233" y="-3"/>
      <point x="252" y="5" type="curve"/>
      <point x="242" y="100" type="line"/>
      <point x="233" y="96"/>
      <point x="227" y="95"/>
      <point x="221" y="95" type="curve" smooth="yes"/>
      <point x="199" y="95"/>
      <point x="186" y="110"/>
      <point x="186" y="144" type="curve" smooth="yes"/>
      <point x="186" y="172"/>
      <point x="196" y="197"/>
      <point x="239" y="203" type="curve" smooth="yes"/>
      <point x="314" y="213" type="line"/>
      <point x="314" y="326" type="line"/>
      <point x="222" y="316" type="line" smooth="yes"/>
      <point x="82" y="301"/>
      <point x="26" y="240"/>
      <point x="26" y="140" type="curve" smooth="yes"/>
      <point x="26" y="47"/>
      <point x="75" y="-9"/>
    </contour>
    <contour>
      <point x="372" y="404" type="line"/>
      <point x="462" y="433"/>
      <point x="481" y="493"/>
      <point x="481" y="551" type="curve"/>
      <point x="357" y="551" type="line"/>
      <point x="355" y="519"/>
      <point x="340" y="495"/>
      <point x="313" y="476" type="curve"/>
    </contour>
  </outline>
</glyph>
<glyph name="hoHip-thai" format="2">
  <advance width="520"/>
  <unicode hex="0E2B"/>
  <note>
uni0E2B
</note>
  <anchor x="479" y="0" name="bottom"/>
  <anchor x="448" y="506" name="top"/>
  <outline>
    <contour>
      <point x="56" y="0" type="line"/>
      <point x="214" y="0" type="line"/>
      <point x="214" y="146" type="line"/>
      <point x="486" y="511" type="line"/>
      <point x="486" y="517" type="line"/>
      <point x="313" y="517" type="line"/>
      <point x="218" y="358" type="line"/>
      <point x="214" y="358" type="line"/>
      <point x="214" y="517" type="line"/>
      <point x="56" y="517" type="line"/>
    </contour>
    <contour>
      <point x="317" y="0" type="line"/>
      <point x="479" y="0" type="line"/>
      <point x="479" y="195" type="line" smooth="yes"/>
      <point x="479" y="288"/>
      <point x="434" y="365"/>
      <point x="345" y="365" type="curve"/>
      <point x="249" y="255" type="line"/>
      <point x="287" y="255"/>
      <point x="317" y="232"/>
      <point x="317" y="168" type="curve" smooth="yes"/>
    </contour>
  </outline>
</glyph>
<glyph name="loChula-thai" format="2">
  <advance width="594"/>
  <unicode hex="0E2C"/>
  <anchor x="518" y="0" name="bottom"/>
  <outline>
    <contour>
      <point x="79" y="0" type="line"/>
      <point x="241" y="0" type="line"/>
      <point x="267" y="106" type="line" smooth="yes"/>
      <point x="282" y="170"/>
      <point x="287" y="186"/>
      <point x="297" y="252" type="curve"/>
      <point x="300" y="252" type="line"/>
      <point x="310" y="186"/>
      <point x="314" y="148"/>
      <point x="324" y="107" type="curve" smooth="yes"/>
      <point x="351" y="0" type="line"/>
      <point x="522" y="0" type="line"/>
      <point x="569" y="400" type="line" smooth="yes"/>
      <point x="575" y="449"/>
      <point x="562" y="506"/>
      <point x="517" y="525" type="curve"/>
      <point x="517" y="529" type="line"/>
      <point x="576" y="542"/>
      <point x="602" y="598"/>
      <point x="602" y="669" type="curve" smooth="yes"/>
      <point x="602" y="674" type="line"/>
      <point x="450" y="674" type="line"/>
      <point x="450" y="669" type="line" smooth="yes"/>
      <point x="450" y="620"/>
      <point x="429" y="582"/>
      <point x="358" y="582" type="curve" smooth="yes"/>
      <point x="295" y="582" type="line"/>
      <point x="295" y="480" type="line"/>
      <point x="356" y="480" type="line" smooth="yes"/>
      <point x="401" y="480"/>
      <point x="417" y="454"/>
      <point x="412" y="385" type="curve" smooth="yes"/>
      <point x="408" y="328" type="line" smooth="yes"/>
      <point x="405" y="281"/>
      <point x="403" y="238"/>
      <point x="400" y="179" type="curve"/>
      <point x="398" y="179" type="line"/>
      <point x="385" y="232"/>
      <point x="377" y="272"/>
      <point x="365" y="315" type="curve" smooth="yes"/>
      <point x="338" y="408" type="line"/>
      <point x="259" y="408" type="line"/>
      <point x="234" y="315" type="line" smooth="yes"/>
      <point x="219" y="260"/>
      <point x="210" y="232"/>
      <point x="201" y="178" type="curve"/>
      <point x="199" y="178" type="line"/>
      <point x="197" y="244"/>
      <point x="194" y="299"/>
      <point x="192" y="329" type="curve" smooth="yes"/>
      <point x="177" y="517" type="line"/>
      <point x="19" y="517" type="line"/>
    </contour>
  </outline>
</glyph>
<glyph name="oAng-thai" format="2">
  <advance width="487"/>
  <unicode hex="0E2D"/>
  <note>
uni0E2D
</note>
  <anchor x="411" y="0" name="bottom"/>
  <anchor x="427" y="506" name="top"/>
  <outline>
    <contour>
      <point x="239" y="-14" type="curve" smooth="yes"/>
      <point x="391" y="-14"/>
      <point x="461" y="82"/>
      <point x="461" y="256" type="curve" smooth="yes"/>
      <point x="461" y="424"/>
      <point x="394" y="531"/>
      <point x="229" y="531" type="curve" smooth="yes"/>
      <point x="171" y="531"/>
      <point x="97" y="515"/>
      <point x="59" y="493" type="curve"/>
      <point x="59" y="362" type="line"/>
      <point x="85" y="382"/>
      <point x="149" y="403"/>
      <point x="193" y="403" type="curve" smooth="yes"/>
      <point x="273" y="403"/>
      <point x="294" y="349"/>
      <point x="294" y="247" type="curve" smooth="yes"/>
      <point x="294" y="140"/>
      <point x="276" y="103"/>
      <point x="238" y="103" type="curve" smooth="yes"/>
      <point x="203" y="103"/>
      <point x="189" y="136"/>
      <point x="189" y="198" type="curve" smooth="yes"/>
      <point x="189" y="210" type="line"/>
      <point x="248" y="210" type="line"/>
      <point x="248" y="306" type="line"/>
      <point x="36" y="306" type="line"/>
      <point x="33" y="280"/>
      <point x="31" y="234"/>
      <point x="31" y="211" type="curve" smooth="yes"/>
      <point x="31" y="65"/>
      <point x="96" y="-14"/>
    </contour>
  </outline>
</glyph>
<glyph name="hoNokhuk-thai" format="2">
  <advance width="501"/>
  <unicode hex="0E2E"/>
  <anchor x="411" y="0" name="bottom"/>
  <anchor x="421" y="506" name="top"/>
  <outline>
    <contour>
      <point x="237" y="-14" type="curve" smooth="yes"/>
      <point x="391" y="-14"/>
      <point x="461" y="87"/>
      <point x="461" y="248" type="curve" smooth="yes"/>
      <point x="461" y="351"/>
      <point x="431" y="420"/>
      <point x="375" y="454" type="curve"/>
      <point x="345" y="510"/>
      <point x="289" y="531"/>
      <point x="225" y="531" type="curve" smooth="yes"/>
      <point x="173" y="531"/>
      <point x="96" y="515"/>
      <point x="58" y="493" type="curve"/>
      <point x="58" y="362" type="line"/>
      <point x="86" y="383"/>
      <point x="146" y="403"/>
      <point x="196" y="403" type="curve" smooth="yes"/>
      <point x="264" y="403"/>
      <point x="294" y="355"/>
      <point x="294" y="242" type="curve" smooth="yes"/>
      <point x="294" y="140"/>
      <point x="275" y="103"/>
      <point x="238" y="103" type="curve" smooth="yes"/>
      <point x="203" y="103"/>
      <point x="189" y="136"/>
      <point x="189" y="198" type="curve" smooth="yes"/>
      <point x="189" y="210" type="line"/>
      <point x="248" y="210" type="line"/>
      <point x="248" y="306" type="line"/>
      <point x="36" y="306" type="line"/>
      <point x="33" y="280"/>
      <point x="31" y="234"/>
      <point x="31" y="211" type="curve" smooth="yes"/>
      <point x="31" y="65"/>
      <point x="97" y="-14"/>
    </contour>
    <contour>
      <point x="370" y="404" type="line"/>
      <point x="460" y="433"/>
      <point x="479" y="493"/>
      <point x="479" y="551" type="curve"/>
      <point x="355" y="551" type="line"/>
      <point x="353" y="519"/>
      <point x="338" y="495"/>
      <point x="311" y="476" type="curve"/>
    </contour>
  </outline>
</glyph>
<glyph name="paiyannoi-thai" format="2">
  <advance width="450"/>
  <unicode hex="0E2F"/>
  <outline>
    <contour>
      <point x="244" y="0" type="line"/>
      <point x="406" y="0" type="line"/>
      <point x="406" y="517" type="line"/>
      <point x="244" y="517" type="line"/>
      <point x="244" y="390" type="line" smooth="yes"/>
      <point x="244" y="339"/>
      <point x="229" y="315"/>
      <point x="201" y="315" type="curve" smooth="yes"/>
      <point x="172" y="315"/>
      <point x="158" y="337"/>
      <point x="158" y="372" type="curve" smooth="yes"/>
      <point x="158" y="407"/>
      <point x="171" y="421"/>
      <point x="188" y="421" type="curve" smooth="yes"/>
      <point x="192" y="421"/>
      <point x="197" y="421"/>
      <point x="204" y="418" type="curve"/>
      <point x="211" y="515" type="line"/>
      <point x="188" y="525"/>
      <point x="165" y="527"/>
      <point x="149" y="527" type="curve" smooth="yes"/>
      <point x="61" y="527"/>
      <point x="9" y="466"/>
      <point x="9" y="368" type="curve" smooth="yes"/>
      <point x="9" y="250"/>
      <point x="83" y="196"/>
      <point x="157" y="196" type="curve" smooth="yes"/>
      <point x="227" y="196"/>
      <point x="275" y="236"/>
      <point x="275" y="304" type="curve"/>
      <point x="244" y="300" type="line"/>
    </contour>
  </outline>
</glyph>
<glyph name="saraA-thai" format="2">
  <advance width="300"/>
  <unicode hex="0E30"/>
  <outline>
    <contour>
      <point x="139" y="319" type="curve" smooth="yes"/>
      <point x="259" y="319" type="line"/>
      <point x="259" y="424" type="line"/>
      <point x="191" y="424" type="line" smooth="yes"/>
      <point x="169" y="424"/>
      <point x="161" y="433"/>
      <point x="161" y="451" type="curve" smooth="yes"/>
      <point x="161" y="463"/>
      <point x="161" y="474"/>
      <point x="164" y="483" type="curve"/>
      <point x="53" y="498" type="line"/>
      <point x="41" y="472"/>
      <point x="34" y="446"/>
      <point x="34" y="423" type="curve" smooth="yes"/>
      <point x="34" y="368"/>
      <point x="60" y="319"/>
    </contour>
    <contour>
      <point x="139" y="39" type="curve" smooth="yes"/>
      <point x="259" y="39" type="line"/>
      <point x="259" y="144" type="line"/>
      <point x="191" y="144" type="line" smooth="yes"/>
      <point x="169" y="144"/>
      <point x="161" y="153"/>
      <point x="161" y="171" type="curve" smooth="yes"/>
      <point x="161" y="183"/>
      <point x="161" y="194"/>
      <point x="164" y="203" type="curve"/>
      <point x="53" y="218" type="line"/>
      <point x="41" y="192"/>
      <point x="34" y="166"/>
      <point x="34" y="143" type="curve" smooth="yes"/>
      <point x="34" y="88"/>
      <point x="60" y="39"/>
    </contour>
  </outline>
</glyph>
<glyph name="maiHanaKat-thai" format="2">
  <unicode hex="0E31"/>
  <anchor x="-56" y="506" name="_top"/>
  <anchor x="-59" y="711" name="top"/>
  <outline>
    <contour>
      <point x="-186" y="602" type="curve" smooth="yes"/>
      <point x="10" y="602" type="line"/>
      <point x="10" y="704" type="line"/>
      <point x="-135" y="704" type="line" smooth="yes"/>
      <point x="-157" y="704"/>
      <point x="-165" y="714"/>
      <point x="-165" y="733" type="curve" smooth="yes"/>
      <point x="-165" y="740"/>
      <point x="-165" y="751"/>
      <point x="-162" y="760" type="curve"/>
      <point x="-273" y="775" type="line"/>
      <point x="-285" y="750"/>
      <point x="-292" y="723"/>
      <point x="-292" y="699" type="curve" smooth="yes"/>
      <point x="-292" y="650"/>
      <point x="-269" y="602"/>
    </contour>
  </outline>
</glyph>
<glyph name="saraAa-thai" format="2">
  <advance width="381"/>
  <unicode hex="0E32"/>
  <outline>
    <contour>
      <point x="167" y="0" type="line"/>
      <point x="329" y="0" type="line"/>
      <point x="329" y="363" type="line" smooth="yes"/>
      <point x="329" y="491"/>
      <point x="258" y="531"/>
      <point x="164" y="531" type="curve" smooth="yes"/>
      <point x="106" y="531"/>
      <point x="58" y="515"/>
      <point x="34" y="503" type="curve"/>
      <point x="34" y="377" type="line"/>
      <point x="54" y="392"/>
      <point x="81" y="405"/>
      <point x="112" y="405" type="curve" smooth="yes"/>
      <point x="147" y="405"/>
      <point x="167" y="384"/>
      <point x="167" y="334" type="curve" smooth="yes"/>
    </contour>
  </outline>
</glyph>
<glyph name="saraI-thai" format="2">
  <unicode hex="0E34"/>
  <anchor x="-56" y="506" name="_top"/>
  <anchor x="-56" y="683" name="top"/>
  <outline>
    <contour>
      <point x="-441" y="602" type="line"/>
      <point x="-56" y="602" type="line"/>
      <point x="-56" y="714" type="line"/>
      <point x="-342" y="714" type="line"/>
      <point x="-441" y="669" type="line"/>
    </contour>
  </outline>
</glyph>
<glyph name="saraIi-thai" format="2">
  <unicode hex="0E35"/>
  <anchor x="-55" y="506" name="_top"/>
  <anchor x="-55" y="742" name="top"/>
  <outline>
    <contour>
      <point x="-441" y="602" type="line"/>
      <point x="-55" y="602" type="line"/>
      <point x="-55" y="714" type="line"/>
      <point x="-342" y="714" type="line"/>
      <point x="-441" y="669" type="line"/>
    </contour>
    <contour>
      <point x="-189" y="667" type="line"/>
      <point x="-55" y="667" type="line"/>
      <point x="-55" y="780" type="line"/>
      <point x="-189" y="780" type="line"/>
    </contour>
  </outline>
</glyph>
<glyph name="saraUe-thai" format="2">
  <unicode hex="0E36"/>
  <anchor x="-55" y="506" name="_top"/>
  <anchor x="-54" y="742" name="top"/>
  <outline>
    <contour>
      <point x="-441" y="602" type="line"/>
      <point x="-120" y="602" type="line" smooth="yes"/>
      <point x="-57" y="602"/>
      <point x="-29" y="643"/>
      <point x="-29" y="697" type="curve" smooth="yes"/>
      <point x="-29" y="752"/>
      <point x="-62" y="793"/>
      <point x="-118" y="793" type="curve" smooth="yes"/>
      <point x="-172" y="793"/>
      <point x="-204" y="755"/>
      <point x="-204" y="706" type="curve" smooth="yes"/>
      <point x="-204" y="696"/>
      <point x="-202" y="684"/>
      <point x="-199" y="672" type="curve"/>
      <point x="-166" y="714" type="line"/>
      <point x="-342" y="714" type="line"/>
      <point x="-441" y="669" type="line"/>
    </contour>
    <contour>
      <point x="-119" y="657" type="curve" smooth="yes"/>
      <point x="-143" y="657"/>
      <point x="-155" y="675"/>
      <point x="-155" y="697" type="curve" smooth="yes"/>
      <point x="-155" y="719"/>
      <point x="-142" y="736"/>
      <point x="-121" y="736" type="curve" smooth="yes"/>
      <point x="-99" y="736"/>
      <point x="-86" y="719"/>
      <point x="-86" y="696" type="curve" smooth="yes"/>
      <point x="-86" y="674"/>
      <point x="-97" y="657"/>
    </contour>
  </outline>
</glyph>
<glyph name="saraUee-thai" format="2">
  <unicode hex="0E37"/>
  <anchor x="-56" y="506" name="_top"/>
  <anchor x="-84" y="742" name="top"/>
  <outline>
    <contour>
      <point x="-441" y="602" type="line"/>
      <point x="-56" y="602" type="line"/>
      <point x="-56" y="714" type="line"/>
      <point x="-342" y="714" type="line"/>
      <point x="-441" y="669" type="line"/>
    </contour>
    <contour>
      <point x="-273" y="667" type="line"/>
      <point x="-183" y="667" type="line"/>
      <point x="-183" y="780" type="line"/>
      <point x="-273" y="780" type="line"/>
    </contour>
    <contour>
      <point x="-146" y="667" type="line"/>
      <point x="-56" y="667" type="line"/>
      <point x="-56" y="780" type="line"/>
      <point x="-146" y="780" type="line"/>
    </contour>
  </outline>
</glyph>
<glyph name="saraUu-thai" format="2">
  <unicode hex="0E39"/>
  <anchor x="-55" y="0" name="_bottom"/>
  <anchor x="-55" y="-265" name="bottom"/>
  <outline>
    <contour>
      <point x="-194" y="-265" type="curve" smooth="yes"/>
      <point x="-94" y="-265"/>
      <point x="-55" y="-230"/>
      <point x="-55" y="-164" type="curve" smooth="yes"/>
      <point x="-55" y="-67" type="line"/>
      <point x="-183" y="-67" type="line"/>
      <point x="-183" y="-146" type="line" smooth="yes"/>
      <point x="-183" y="-168"/>
      <point x="-187" y="-180"/>
      <point x="-200" y="-180" type="curve" smooth="yes"/>
      <point x="-212" y="-180"/>
      <point x="-216" y="-168"/>
      <point x="-216" y="-146" type="curve" smooth="yes"/>
      <point x="-216" y="-125" type="line" smooth="yes"/>
      <point x="-216" y="-86"/>
      <point x="-240" y="-64"/>
      <point x="-293" y="-64" type="curve" smooth="yes"/>
      <point x="-314" y="-64"/>
      <point x="-352" y="-66"/>
      <point x="-366" y="-75" type="curve"/>
      <point x="-361" y="-143" type="line"/>
      <point x="-344" y="-138"/>
      <point x="-333" y="-141"/>
      <point x="-333" y="-163" type="curve" smooth="yes"/>
      <point x="-333" y="-180" type="line" smooth="yes"/>
      <point x="-333" y="-230"/>
      <point x="-294" y="-265"/>
    </contour>
  </outline>
</glyph>
<glyph name="saraE-thai" format="2">
  <advance width="306"/>
  <unicode hex="0E40"/>
  <outline>
    <contour>
      <point x="193" y="-9" type="curve" smooth="yes"/>
      <point x="231" y="-9"/>
      <point x="264" y="-1"/>
      <point x="283" y="11" type="curve"/>
      <point x="271" y="111" type="line"/>
      <point x="264" y="107"/>
      <point x="253" y="104"/>
      <point x="247" y="104" type="curve" smooth="yes"/>
      <point x="231" y="104"/>
      <point x="225" y="115"/>
      <point x="225" y="137" type="curve" smooth="yes"/>
      <point x="225" y="517" type="line"/>
      <point x="63" y="517" type="line"/>
      <point x="63" y="119" type="line" smooth="yes"/>
      <point x="63" y="35"/>
      <point x="98" y="-9"/>
    </contour>
  </outline>
</glyph>
<glyph name="saraO-thai" format="2">
  <advance width="312"/>
  <unicode hex="0E42"/>
  <outline>
    <contour>
      <point x="81" y="423" type="line"/>
      <point x="243" y="423" type="line"/>
      <point x="243" y="550" type="line" smooth="yes"/>
      <point x="243" y="612"/>
      <point x="236" y="648"/>
      <point x="203" y="668" type="curve"/>
      <point x="204" y="672" type="line"/>
      <point x="312" y="672" type="line"/>
      <point x="312" y="786" type="line"/>
      <point x="120" y="786" type="line"/>
      <point x="21" y="736" type="line"/>
      <point x="21" y="672" type="line"/>
      <point x="66" y="672"/>
      <point x="81" y="642"/>
      <point x="81" y="567" type="curve" smooth="yes"/>
    </contour>
    <component base="saraE-thai" xOffset="18"/>
  </outline>
</glyph>
<glyph name="saraAiMaimuan-thai" format="2">
  <advance width="306"/>
  <unicode hex="0E43"/>
  <outline>
    <contour>
      <point x="198" y="-9" type="curve" smooth="yes"/>
      <point x="237" y="-9"/>
      <point x="269" y="-1"/>
      <point x="289" y="11" type="curve"/>
      <point x="277" y="111" type="line"/>
      <point x="269" y="107"/>
      <point x="259" y="104"/>
      <point x="252" y="104" type="curve" smooth="yes"/>
      <point x="237" y="104"/>
      <point x="230" y="115"/>
      <point x="230" y="137" type="curve" smooth="yes"/>
      <point x="230" y="457" type="line" smooth="yes"/>
      <point x="230" y="503"/>
      <point x="244" y="515"/>
      <point x="269" y="557" type="curve" smooth="yes"/>
      <point x="286" y="586"/>
      <point x="305" y="622"/>
      <point x="305" y="673" type="curve" smooth="yes"/>
      <point x="305" y="758"/>
      <point x="247" y="801"/>
      <point x="153" y="801" type="curve" smooth="yes"/>
      <point x="86" y="801"/>
      <point x="36" y="781"/>
      <point x="22" y="772" type="curve"/>
      <point x="22" y="657" type="line"/>
      <point x="39" y="671"/>
      <point x="58" y="680"/>
      <point x="82" y="680" type="curve" smooth="yes"/>
      <point x="119" y="680"/>
      <point x="134" y="662"/>
      <point x="134" y="634" type="curve" smooth="yes"/>
      <point x="134" y="609"/>
      <point x="115" y="591"/>
      <point x="100" y="566" type="curve" smooth="yes"/>
      <point x="75" y="524"/>
      <point x="68" y="510"/>
      <point x="68" y="462" type="curve" smooth="yes"/>
      <point x="68" y="119" type="line" smooth="yes"/>
      <point x="68" y="35"/>
      <point x="103" y="-9"/>
    </contour>
  </outline>
</glyph>
<glyph name="saraAiMaimalai-thai" format="2">
  <advance width="316"/>
  <unicode hex="0E44"/>
  <outline>
    <contour>
      <point x="83" y="423" type="line"/>
      <point x="245" y="423" type="line"/>
      <point x="245" y="567" type="line" smooth="yes"/>
      <point x="245" y="647"/>
      <point x="278" y="672"/>
      <point x="316" y="672" type="curve"/>
      <point x="316" y="786" type="line"/>
      <point x="39" y="786" type="line"/>
      <point x="14" y="672" type="line"/>
      <point x="122" y="672" type="line"/>
      <point x="123" y="668" type="line"/>
      <point x="102" y="650"/>
      <point x="83" y="621"/>
      <point x="83" y="550" type="curve" smooth="yes"/>
    </contour>
    <component base="saraE-thai" xOffset="20"/>
  </outline>
</glyph>
<glyph name="lakkhangyao-thai" format="2">
  <advance width="381"/>
  <unicode hex="0E45"/>
  <outline>
    <contour>
      <point x="167" y="-203" type="line"/>
      <point x="329" y="-203" type="line"/>
      <point x="329" y="94" type="line"/>
      <point x="167" y="94" type="line"/>
    </contour>
    <component base="saraAa-thai"/>
  </outline>
</glyph>
<glyph name="maiyamok-thai" format="2">
  <advance width="540"/>
  <unicode hex="0E46"/>
  <outline>
    <contour>
      <point x="326" y="-203" type="line"/>
      <point x="488" y="-203" type="line"/>
      <point x="488" y="385" type="line" smooth="yes"/>
      <point x="488" y="503"/>
      <point x="433" y="531"/>
      <point x="367" y="531" type="curve" smooth="yes"/>
      <point x="318" y="531"/>
      <point x="286" y="516"/>
      <point x="270" y="482" type="curve"/>
      <point x="266" y="482" type="line"/>
      <point x="250" y="516"/>
      <point x="217" y="531"/>
      <point x="173" y="531" type="curve" smooth="yes"/>
      <point x="93" y="531"/>
      <point x="38" y="480"/>
      <point x="38" y="357" type="curve" smooth="yes"/>
      <point x="38" y="232"/>
      <point x="92" y="174"/>
      <point x="174" y="174" type="curve" smooth="yes"/>
      <point x="211" y="174"/>
      <point x="241" y="187"/>
      <point x="256" y="201" type="curve"/>
      <point x="230" y="298" type="line"/>
      <point x="224" y="295"/>
      <point x="217" y="293"/>
      <point x="210" y="293" type="curve" smooth="yes"/>
      <point x="191" y="293"/>
      <point x="182" y="309"/>
      <point x="182" y="356" type="curve" smooth="yes"/>
      <point x="182" y="405"/>
      <point x="191" y="420"/>
      <point x="204" y="420" type="curve" smooth="yes"/>
      <point x="215" y="420"/>
      <point x="224" y="408"/>
      <point x="224" y="381" type="curve" smooth="yes"/>
      <point x="224" y="353" type="line"/>
      <point x="286" y="353" type="line"/>
      <point x="286" y="381" type="line" smooth="yes"/>
      <point x="286" y="409"/>
      <point x="294" y="420"/>
      <point x="306" y="420" type="curve" smooth="yes"/>
      <point x="318" y="420"/>
      <point x="326" y="409"/>
      <point x="326" y="381" type="curve" smooth="yes"/>
    </contour>
  </outline>
</glyph>
<glyph name="maitaikhu-thai" format="2">
  <unicode hex="0E47"/>
  <anchor x="-55" y="506" name="_top"/>
  <anchor x="-163" y="815" name="top"/>
  <outline>
    <contour>
      <point x="-165" y="594" type="curve" smooth="yes"/>
      <point x="-113" y="594"/>
      <point x="-80" y="627"/>
      <point x="-80" y="700" type="curve" smooth="yes"/>
      <point x="-80" y="721" type="line"/>
      <point x="-186" y="721" type="line"/>
      <point x="-186" y="706" type="line" smooth="yes"/>
      <point x="-186" y="686"/>
      <point x="-192" y="672"/>
      <point x="-204" y="672" type="curve" smooth="yes"/>
      <point x="-220" y="672"/>
      <point x="-228" y="692"/>
      <point x="-230" y="717" type="curve"/>
      <point x="-248" y="717" type="line"/>
      <point x="-276" y="675" type="line"/>
      <point x="-286" y="675"/>
      <point x="-292" y="692"/>
      <point x="-292" y="716" type="curve" smooth="yes"/>
      <point x="-292" y="748"/>
      <point x="-280" y="763"/>
      <point x="-265" y="763" type="curve" smooth="yes"/>
      <point x="-81" y="763" type="line"/>
      <point x="-81" y="839" type="line"/>
      <point x="-293" y="839" type="line" smooth="yes"/>
      <point x="-348" y="839"/>
      <point x="-398" y="800"/>
      <point x="-398" y="718" type="curve" smooth="yes"/>
      <point x="-398" y="639"/>
      <point x="-352" y="597"/>
      <point x="-279" y="597" type="curve"/>
      <point x="-239" y="639" type="line"/>
      <point x="-224" y="610"/>
      <point x="-200" y="594"/>
    </contour>
  </outline>
</glyph>
<glyph name="maiEk-thai" format="2">
  <unicode hex="0E48"/>
  <anchor x="-55" y="506" name="_top"/>
  <anchor x="-55" y="815" name="top"/>
  <outline>
    <contour>
      <point x="-208" y="602" type="line"/>
      <point x="-64" y="602" type="line"/>
      <point x="-64" y="832" type="line"/>
      <point x="-208" y="832" type="line"/>
    </contour>
  </outline>
</glyph>
<glyph name="maiTho-thai" format="2">
  <unicode hex="0E49"/>
  <anchor x="-55" y="506" name="_top"/>
  <anchor x="-107" y="815" name="top"/>
  <outline>
    <contour>
      <point x="-266" y="601" type="line"/>
      <point x="-26" y="601" type="line"/>
      <point x="-26" y="703" type="line"/>
      <point x="-138" y="703" type="line"/>
      <point x="-139" y="676" type="line"/>
      <point x="-109" y="692"/>
      <point x="-103" y="719"/>
      <point x="-103" y="747" type="curve" smooth="yes"/>
      <point x="-103" y="803"/>
      <point x="-134" y="831"/>
      <point x="-186" y="831" type="curve" smooth="yes"/>
      <point x="-212" y="831"/>
      <point x="-254" y="825"/>
      <point x="-275" y="802" type="curve"/>
      <point x="-260" y="733" type="line"/>
      <point x="-254" y="737"/>
      <point x="-245" y="742"/>
      <point x="-240" y="742" type="curve" smooth="yes"/>
      <point x="-229" y="742"/>
      <point x="-219" y="731"/>
      <point x="-219" y="712" type="curve" smooth="yes"/>
      <point x="-219" y="674"/>
      <point x="-255" y="660"/>
      <point x="-266" y="652" type="curve"/>
    </contour>
  </outline>
</glyph>
<glyph name="maiTri-thai" format="2">
  <unicode hex="0E4A"/>
  <anchor x="-55" y="506" name="_top"/>
  <anchor x="-137" y="815" name="top"/>
  <outline>
    <contour>
      <point x="-283" y="597" type="curve" smooth="yes"/>
      <point x="-265" y="597"/>
      <point x="-239" y="601"/>
      <point x="-231" y="608" type="curve"/>
      <point x="-234" y="675" type="line"/>
      <point x="-240" y="673"/>
      <point x="-243" y="673"/>
      <point x="-246" y="673" type="curve" smooth="yes"/>
      <point x="-260" y="673"/>
      <point x="-267" y="687"/>
      <point x="-267" y="708" type="curve" smooth="yes"/>
      <point x="-267" y="731"/>
      <point x="-258" y="741"/>
      <point x="-250" y="743" type="curve"/>
      <point x="-228" y="722" type="line"/>
      <point x="-225" y="722" type="line"/>
      <point x="-203" y="743" type="line"/>
      <point x="-195" y="742"/>
      <point x="-185" y="731"/>
      <point x="-185" y="708" type="curve" smooth="yes"/>
      <point x="-185" y="686"/>
      <point x="-193" y="676"/>
      <point x="-205" y="670" type="curve"/>
      <point x="-205" y="602" type="line"/>
      <point x="-25" y="602" type="line"/>
      <point x="-25" y="698" type="line"/>
      <point x="-94" y="698" type="line"/>
      <point x="-92" y="682" type="line"/>
      <point x="-84" y="694"/>
      <point x="-77" y="713"/>
      <point x="-77" y="738" type="curve" smooth="yes"/>
      <point x="-77" y="786"/>
      <point x="-103" y="826"/>
      <point x="-183" y="830" type="curve"/>
      <point x="-227" y="792" type="line"/>
      <point x="-281" y="830" type="line"/>
      <point x="-341" y="827"/>
      <point x="-380" y="782"/>
      <point x="-380" y="711" type="curve" smooth="yes"/>
      <point x="-380" y="641"/>
      <point x="-344" y="597"/>
    </contour>
  </outline>
</glyph>
<glyph name="maiChattawa-thai" format="2">
  <unicode hex="0E4B"/>
  <anchor x="-55" y="506" name="_top"/>
  <anchor x="-55" y="815" name="top"/>
  <outline>
    <contour>
      <point x="-201" y="602" type="line"/>
      <point x="-73" y="602" type="line"/>
      <point x="-73" y="832" type="line"/>
      <point x="-201" y="832" type="line"/>
    </contour>
    <contour>
      <point x="-250" y="671" type="line"/>
      <point x="-23" y="671" type="line"/>
      <point x="-23" y="763" type="line"/>
      <point x="-250" y="763" type="line"/>
    </contour>
  </outline>
</glyph>
<glyph name="thanthakhat-thai" format="2">
  <unicode hex="0E4C"/>
  <anchor x="-55" y="506" name="_top"/>
  <anchor x="-53" y="741" name="top"/>
  <outline>
    <contour>
      <point x="-217" y="581" type="curve"/>
      <point x="-96" y="603" type="line"/>
      <point x="-100" y="613"/>
      <point x="-102" y="623"/>
      <point x="-102" y="633" type="curve" smooth="yes"/>
      <point x="-102" y="654"/>
      <point x="-91" y="662"/>
      <point x="-72" y="662" type="curve" smooth="yes"/>
      <point x="-8" y="662" type="line"/>
      <point x="-8" y="770" type="line"/>
      <point x="-130" y="770" type="line" smooth="yes"/>
      <point x="-210" y="770"/>
      <point x="-235" y="723"/>
      <point x="-235" y="665" type="curve" smooth="yes"/>
      <point x="-235" y="633"/>
      <point x="-228" y="601"/>
    </contour>
  </outline>
</glyph>
<glyph name="nikhahit-thai" format="2">
  <unicode hex="0E4D"/>
  <anchor x="-55" y="506" name="_top"/>
  <anchor x="-73" y="742" name="top"/>
  <outline>
    <contour>
      <point x="-152" y="578" type="curve" smooth="yes"/>
      <point x="-84" y="578"/>
      <point x="-41" y="615"/>
      <point x="-41" y="679" type="curve" smooth="yes"/>
      <point x="-41" y="743"/>
      <point x="-84" y="780"/>
      <point x="-152" y="780" type="curve" smooth="yes"/>
      <point x="-218" y="780"/>
      <point x="-262" y="743"/>
      <point x="-262" y="679" type="curve" smooth="yes"/>
      <point x="-262" y="615"/>
      <point x="-218" y="578"/>
    </contour>
    <contour>
      <point x="-152" y="639" type="curve" smooth="yes"/>
      <point x="-172" y="639"/>
      <point x="-185" y="654"/>
      <point x="-185" y="679" type="curve" smooth="yes"/>
      <point x="-185" y="704"/>
      <point x="-172" y="719"/>
      <point x="-152" y="719" type="curve" smooth="yes"/>
      <point x="-130" y="719"/>
      <point x="-118" y="704"/>
      <point x="-118" y="679" type="curve" smooth="yes"/>
      <point x="-118" y="654"/>
      <point x="-130" y="639"/>
    </contour>
  </outline>
</glyph>
<glyph name="yamakkan-thai" format="2">
  <unicode hex="0E4E"/>
  <anchor x="-55" y="506" name="_top"/>
  <anchor x="-54" y="740" name="top"/>
  <outline>
    <contour>
      <point x="-231" y="582" type="curve"/>
      <point x="-134" y="599" type="line"/>
      <point x="-137" y="606"/>
      <point x="-138" y="612"/>
      <point x="-138" y="619" type="curve" smooth="yes"/>
      <point x="-138" y="634"/>
      <point x="-132" y="647"/>
      <point x="-117" y="647" type="curve" smooth="yes"/>
      <point x="-111" y="647"/>
      <point x="-102" y="646"/>
      <point x="-95" y="637" type="curve"/>
      <point x="-60" y="664" type="line"/>
      <point x="-65" y="672"/>
      <point x="-65" y="681"/>
      <point x="-65" y="688" type="curve" smooth="yes"/>
      <point x="-65" y="710"/>
      <point x="-50" y="721"/>
      <point x="-34" y="721" type="curve" smooth="yes"/>
      <point x="-25" y="721"/>
      <point x="-14" y="719"/>
      <point x="-7" y="715" type="curve"/>
      <point x="-7" y="785" type="line"/>
      <point x="-23" y="794"/>
      <point x="-47" y="797"/>
      <point x="-62" y="797" type="curve" smooth="yes"/>
      <point x="-103" y="797"/>
      <point x="-140" y="775"/>
      <point x="-140" y="726" type="curve" smooth="yes"/>
      <point x="-140" y="712"/>
      <point x="-138" y="694"/>
      <point x="-129" y="683" type="curve"/>
      <point x="-116" y="693" type="line"/>
      <point x="-129" y="704"/>
      <point x="-142" y="714"/>
      <point x="-168" y="714" type="curve" smooth="yes"/>
      <point x="-211" y="714"/>
      <point x="-245" y="690"/>
      <point x="-245" y="637" type="curve" smooth="yes"/>
      <point x="-245" y="615"/>
      <point x="-239" y="596"/>
    </contour>
  </outline>
</glyph>
<glyph name="one-thai" format="2">
  <advance width="417"/>
  <unicode hex="0E51"/>
  <outline>
    <contour>
      <point x="184" y="-14" type="curve" smooth="yes"/>
      <point x="329" y="-14"/>
      <point x="386" y="90"/>
      <point x="386" y="234" type="curve" smooth="yes"/>
      <point x="386" y="378"/>
      <point x="332" y="465"/>
      <point x="189" y="465" type="curve" smooth="yes"/>
      <point x="71" y="465"/>
      <point x="27" y="404"/>
      <point x="27" y="291" type="curve" smooth="yes"/>
      <point x="27" y="188"/>
      <point x="71" y="133"/>
      <point x="129" y="133" type="curve" smooth="yes"/>
      <point x="163" y="133"/>
      <point x="201" y="144"/>
      <point x="217" y="162" type="curve"/>
      <point x="196" y="257" type="line"/>
      <point x="192" y="254"/>
      <point x="188" y="252"/>
      <point x="181" y="252" type="curve" smooth="yes"/>
      <point x="171" y="252"/>
      <point x="165" y="268"/>
      <point x="165" y="298" type="curve" smooth="yes"/>
      <point x="165" y="336"/>
      <point x="175" y="352"/>
      <point x="191" y="352" type="curve" smooth="yes"/>
      <point x="217" y="352"/>
      <point x="233" y="326"/>
      <point x="233" y="240" type="curve" smooth="yes"/>
      <point x="233" y="139"/>
      <point x="198" y="96"/>
      <point x="135" y="96" type="curve" smooth="yes"/>
      <point x="126" y="96"/>
      <point x="118" y="98"/>
      <point x="111" y="102" type="curve"/>
      <point x="111" y="0" type="line"/>
      <point x="136" y="-10"/>
      <point x="160" y="-14"/>
    </contour>
  </outline>
</glyph>
<glyph name="three-thai" format="2">
  <advance width="456"/>
  <unicode hex="0E53"/>
  <outline>
    <contour>
      <point x="179" y="-10" type="curve" smooth="yes"/>
      <point x="211" y="-10"/>
      <point x="233" y="-3"/>
      <point x="247" y="3" type="curve"/>
      <point x="229" y="108" type="line"/>
      <point x="226" y="104"/>
      <point x="222" y="103"/>
      <point x="217" y="103" type="curve" smooth="yes"/>
      <point x="183" y="103"/>
      <point x="174" y="145"/>
      <point x="174" y="237" type="curve" smooth="yes"/>
      <point x="174" y="306"/>
      <point x="179" y="340"/>
      <point x="194" y="340" type="curve" smooth="yes"/>
      <point x="200" y="340"/>
      <point x="205" y="335"/>
      <point x="207" y="311" type="curve"/>
      <point x="248" y="311" type="line"/>
      <point x="250" y="335"/>
      <point x="255" y="340"/>
      <point x="261" y="340" type="curve" smooth="yes"/>
      <point x="270" y="340"/>
      <point x="275" y="333"/>
      <point x="275" y="300" type="curve" smooth="yes"/>
      <point x="275" y="0" type="line"/>
      <point x="417" y="0" type="line"/>
      <point x="417" y="328" type="line" smooth="yes"/>
      <point x="417" y="416"/>
      <point x="389" y="465"/>
      <point x="321" y="465" type="curve" smooth="yes"/>
      <point x="288" y="465"/>
      <point x="241" y="453"/>
      <point x="230" y="410" type="curve"/>
      <point x="228" y="410" type="line"/>
      <point x="202" y="455"/>
      <point x="176" y="465"/>
      <point x="146" y="465" type="curve" smooth="yes"/>
      <point x="69" y="465"/>
      <point x="31" y="396"/>
      <point x="31" y="235" type="curve" smooth="yes"/>
      <point x="31" y="78"/>
      <point x="67" y="-10"/>
    </contour>
  </outline>
</glyph>
<glyph name="four-thai" format="2">
  <advance width="428"/>
  <unicode hex="0E54"/>
  <outline>
    <contour>
      <point x="203" y="0" type="curve" smooth="yes"/>
      <point x="397" y="0" type="line"/>
      <point x="397" y="107" type="line"/>
      <point x="380" y="107" type="line" smooth="yes"/>
      <point x="347" y="107"/>
      <point x="334" y="123"/>
      <point x="334" y="154" type="curve" smooth="yes"/>
      <point x="334" y="180"/>
      <point x="343" y="195"/>
      <point x="356" y="195" type="curve" smooth="yes"/>
      <point x="359" y="195"/>
      <point x="365" y="195"/>
      <point x="369" y="192" type="curve"/>
      <point x="383" y="274" type="line"/>
      <point x="366" y="284"/>
      <point x="343" y="289"/>
      <point x="317" y="289" type="curve" smooth="yes"/>
      <point x="247" y="289"/>
      <point x="215" y="254"/>
      <point x="215" y="182" type="curve" smooth="yes"/>
      <point x="215" y="145"/>
      <point x="223" y="109"/>
      <point x="242" y="94" type="curve"/>
      <point x="249" y="107" type="line"/>
      <point x="225" y="107" type="line" smooth="yes"/>
      <point x="191" y="107"/>
      <point x="174" y="139"/>
      <point x="174" y="212" type="curve" smooth="yes"/>
      <point x="174" y="305"/>
      <point x="206" y="348"/>
      <point x="265" y="348" type="curve" smooth="yes"/>
      <point x="280" y="348" type="line" smooth="yes"/>
      <point x="346" y="348"/>
      <point x="385" y="399"/>
      <point x="385" y="487" type="curve" smooth="yes"/>
      <point x="385" y="584" type="line"/>
      <point x="248" y="584" type="line"/>
      <point x="248" y="524" type="line" smooth="yes"/>
      <point x="248" y="479"/>
      <point x="233" y="460"/>
      <point x="205" y="460" type="curve" smooth="yes"/>
      <point x="187" y="460" type="line" smooth="yes"/>
      <point x="82" y="460"/>
      <point x="31" y="356"/>
      <point x="31" y="217" type="curve" smooth="yes"/>
      <point x="31" y="72"/>
      <point x="76" y="0"/>
    </contour>
  </outline>
</glyph>
<glyph name="five-thai" format="2">
  <advance width="451"/>
  <unicode hex="0E55"/>
  <outline>
    <contour>
      <point x="203" y="0" type="curve" smooth="yes"/>
      <point x="397" y="0" type="line"/>
      <point x="397" y="107" type="line"/>
      <point x="380" y="107" type="line" smooth="yes"/>
      <point x="347" y="107"/>
      <point x="334" y="123"/>
      <point x="334" y="154" type="curve" smooth="yes"/>
      <point x="334" y="180"/>
      <point x="343" y="195"/>
      <point x="356" y="195" type="curve" smooth="yes"/>
      <point x="359" y="195"/>
      <point x="365" y="195"/>
      <point x="369" y="192" type="curve"/>
      <point x="383" y="274" type="line"/>
      <point x="366" y="284"/>
      <point x="343" y="289"/>
      <point x="317" y="289" type="curve" smooth="yes"/>
      <point x="247" y="289"/>
      <point x="215" y="254"/>
      <point x="215" y="182" type="curve" smooth="yes"/>
      <point x="215" y="145"/>
      <point x="223" y="109"/>
      <point x="242" y="94" type="curve"/>
      <point x="249" y="107" type="line"/>
      <point x="225" y="107" type="line" smooth="yes"/>
      <point x="191" y="107"/>
      <point x="174" y="139"/>
      <point x="174" y="212" type="curve" smooth="yes"/>
      <point x="174" y="304"/>
      <point x="206" y="348"/>
      <point x="274" y="348" type="curve" smooth="yes"/>
      <point x="297" y="348" type="line" smooth="yes"/>
      <point x="364" y="348"/>
      <point x="412" y="399"/>
      <point x="412" y="487" type="curve" smooth="yes"/>
      <point x="412" y="584" type="line"/>
      <point x="297" y="584" type="line"/>
      <point x="297" y="536" type="line" smooth="yes"/>
      <point x="297" y="461"/>
      <point x="291" y="452"/>
      <point x="227" y="452" type="curve"/>
      <point x="228" y="435" type="line"/>
      <point x="249" y="441"/>
      <point x="271" y="466"/>
      <point x="271" y="510" type="curve" smooth="yes"/>
      <point x="271" y="562"/>
      <point x="239" y="599"/>
      <point x="178" y="599" type="curve" smooth="yes"/>
      <point x="120" y="599"/>
      <point x="85" y="564"/>
      <point x="85" y="511" type="curve" smooth="yes"/>
      <point x="85" y="458"/>
      <point x="119" y="430"/>
      <point x="165" y="424" type="curve"/>
      <point x="160" y="450" type="line"/>
      <point x="73" y="447"/>
      <point x="31" y="355"/>
      <point x="31" y="217" type="curve" smooth="yes"/>
      <point x="31" y="72"/>
      <point x="76" y="0"/>
    </contour>
    <contour>
      <point x="177" y="468" type="curve" smooth="yes"/>
      <point x="161" y="468"/>
      <point x="154" y="484"/>
      <point x="154" y="503" type="curve" smooth="yes"/>
      <point x="154" y="522"/>
      <point x="161" y="538"/>
      <point x="177" y="538" type="curve" smooth="yes"/>
      <point x="192" y="538"/>
      <point x="201" y="522"/>
      <point x="201" y="503" type="curve" smooth="yes"/>
      <point x="201" y="484"/>
      <point x="192" y="468"/>
    </contour>
  </outline>
</glyph>
<glyph name="six-thai" format="2">
  <advance width="425"/>
  <unicode hex="0E56"/>
  <outline>
    <contour>
      <point x="214" y="-14" type="curve" smooth="yes"/>
      <point x="343" y="-14"/>
      <point x="394" y="78"/>
      <point x="394" y="231" type="curve" smooth="yes"/>
      <point x="394" y="374"/>
      <point x="349" y="465"/>
      <point x="246" y="465" type="curve" smooth="yes"/>
      <point x="194" y="465"/>
      <point x="162" y="442"/>
      <point x="151" y="393" type="curve"/>
      <point x="169" y="393" type="line"/>
      <point x="153" y="584" type="line"/>
      <point x="27" y="584" type="line"/>
      <point x="62" y="291" type="line"/>
      <point x="180" y="291" type="line"/>
      <point x="178" y="329"/>
      <point x="191" y="349"/>
      <point x="207" y="349" type="curve" smooth="yes"/>
      <point x="227" y="349"/>
      <point x="241" y="314"/>
      <point x="241" y="228" type="curve" smooth="yes"/>
      <point x="241" y="147"/>
      <point x="228" y="103"/>
      <point x="204" y="103" type="curve" smooth="yes"/>
      <point x="188" y="103"/>
      <point x="171" y="123"/>
      <point x="154" y="160" type="curve"/>
      <point x="50" y="84" type="line"/>
      <point x="81" y="14"/>
      <point x="141" y="-14"/>
    </contour>
  </outline>
</glyph>
<glyph name="seven-thai" format="2">
  <advance width="618"/>
  <unicode hex="0E57"/>
  <outline>
    <contour>
      <point x="168" y="-10" type="curve" smooth="yes"/>
      <point x="195" y="-10"/>
      <point x="229" y="-4"/>
      <point x="247" y="3" type="curve"/>
      <point x="229" y="108" type="line"/>
      <point x="226" y="104"/>
      <point x="222" y="103"/>
      <point x="218" y="103" type="curve" smooth="yes"/>
      <point x="183" y="103"/>
      <point x="174" y="145"/>
      <point x="174" y="237" type="curve" smooth="yes"/>
      <point x="174" y="307"/>
      <point x="180" y="340"/>
      <point x="195" y="340" type="curve" smooth="yes"/>
      <point x="200" y="340"/>
      <point x="205" y="336"/>
      <point x="208" y="313" type="curve"/>
      <point x="240" y="313" type="line"/>
      <point x="242" y="335"/>
      <point x="247" y="340"/>
      <point x="254" y="340" type="curve" smooth="yes"/>
      <point x="264" y="340"/>
      <point x="269" y="332"/>
      <point x="269" y="302" type="curve" smooth="yes"/>
      <point x="269" y="0" type="line"/>
      <point x="392" y="0" type="line" smooth="yes"/>
      <point x="474" y="0"/>
      <point x="584" y="42"/>
      <point x="584" y="222" type="curve" smooth="yes"/>
      <point x="584" y="584" type="line"/>
      <point x="437" y="584" type="line"/>
      <point x="437" y="206" type="line" smooth="yes"/>
      <point x="437" y="124"/>
      <point x="421" y="108"/>
      <point x="396" y="108" type="curve"/>
      <point x="396" y="355" type="line" smooth="yes"/>
      <point x="396" y="429"/>
      <point x="368" y="465"/>
      <point x="311" y="465" type="curve" smooth="yes"/>
      <point x="286" y="465"/>
      <point x="243" y="455"/>
      <point x="227" y="410" type="curve"/>
      <point x="224" y="410" type="line"/>
      <point x="204" y="455"/>
      <point x="176" y="465"/>
      <point x="148" y="465" type="curve" smooth="yes"/>
      <point x="69" y="465"/>
      <point x="31" y="402"/>
      <point x="31" y="237" type="curve" smooth="yes"/>
      <point x="31" y="82"/>
      <point x="67" y="-10"/>
    </contour>
  </outline>
</glyph>
<glyph name="eight-thai" format="2">
  <advance width="452"/>
  <unicode hex="0E58"/>
  <outline>
    <contour>
      <point x="304" y="-14" type="curve" smooth="yes"/>
      <point x="378" y="-14"/>
      <point x="420" y="43"/>
      <point x="420" y="146" type="curve" smooth="yes"/>
      <point x="420" y="207"/>
      <point x="408" y="255"/>
      <point x="371" y="290" type="curve"/>
      <point x="286" y="220" type="line"/>
      <point x="289" y="210"/>
      <point x="297" y="191"/>
      <point x="297" y="163" type="curve" smooth="yes"/>
      <point x="297" y="132"/>
      <point x="288" y="114"/>
      <point x="274" y="114" type="curve" smooth="yes"/>
      <point x="262" y="114"/>
      <point x="257" y="127"/>
      <point x="256" y="157" type="curve"/>
      <point x="205" y="157" type="line"/>
      <point x="196" y="127" type="line"/>
      <point x="183" y="132"/>
      <point x="171" y="159"/>
      <point x="171" y="229" type="curve" smooth="yes"/>
      <point x="171" y="303"/>
      <point x="197" y="348"/>
      <point x="238" y="348" type="curve" smooth="yes"/>
      <point x="291" y="348" type="line" smooth="yes"/>
      <point x="358" y="348"/>
      <point x="397" y="399"/>
      <point x="397" y="487" type="curve" smooth="yes"/>
      <point x="397" y="584" type="line"/>
      <point x="246" y="584" type="line"/>
      <point x="246" y="520" type="line" smooth="yes"/>
      <point x="246" y="475"/>
      <point x="238" y="460"/>
      <point x="219" y="460" type="curve" smooth="yes"/>
      <point x="203" y="460" type="line" smooth="yes"/>
      <point x="66" y="460"/>
      <point x="31" y="352"/>
      <point x="31" y="219" type="curve" smooth="yes"/>
      <point x="31" y="63"/>
      <point x="79" y="-10"/>
      <point x="176" y="-10" type="curve"/>
      <point x="228" y="77" type="line"/>
      <point x="213" y="77" type="line"/>
      <point x="220" y="13"/>
      <point x="253" y="-14"/>
    </contour>
  </outline>
</glyph>
<glyph name="angkhankhu-thai" format="2">
  <advance width="699"/>
  <unicode hex="0E5A"/>
  <outline>
    <contour>
      <point x="244" y="0" type="line"/>
      <point x="406" y="0" type="line"/>
      <point x="406" y="517" type="line"/>
      <point x="244" y="517" type="line"/>
      <point x="244" y="388" type="line" smooth="yes"/>
      <point x="244" y="340"/>
      <point x="229" y="315"/>
      <point x="200" y="315" type="curve" smooth="yes"/>
      <point x="172" y="315"/>
      <point x="158" y="337"/>
      <point x="158" y="372" type="curve" smooth="yes"/>
      <point x="158" y="406"/>
      <point x="171" y="421"/>
      <point x="188" y="421" type="curve" smooth="yes"/>
      <point x="192" y="421"/>
      <point x="197" y="421"/>
      <point x="204" y="418" type="curve"/>
      <point x="211" y="515" type="line"/>
      <point x="188" y="525"/>
      <point x="165" y="527"/>
      <point x="149" y="527" type="curve" smooth="yes"/>
      <point x="61" y="527"/>
      <point x="9" y="466"/>
      <point x="9" y="368" type="curve" smooth="yes"/>
      <point x="9" y="250"/>
      <point x="83" y="196"/>
      <point x="157" y="196" type="curve" smooth="yes"/>
      <point x="227" y="196"/>
      <point x="275" y="236"/>
      <point x="275" y="308" type="curve"/>
      <point x="244" y="303" type="line"/>
    </contour>
    <contour>
      <point x="493" y="0" type="line"/>
      <point x="655" y="0" type="line"/>
      <point x="655" y="517" type="line"/>
      <point x="493" y="517" type="line"/>
      <point x="493" y="400" type="line" smooth="yes"/>
      <point x="493" y="344"/>
      <point x="469" y="310"/>
      <point x="438" y="310" type="curve" smooth="yes"/>
      <point x="419" y="310"/>
      <point x="398" y="318"/>
      <point x="372" y="338" type="curve"/>
      <point x="335" y="245" type="line"/>
      <point x="362" y="215"/>
      <point x="397" y="200"/>
      <point x="427" y="200" type="curve" smooth="yes"/>
      <point x="477" y="200"/>
      <point x="517" y="240"/>
      <point x="518" y="319" type="curve"/>
      <point x="493" y="317" type="line"/>
    </contour>
  </outline>
</glyph>
<glyph name="khomut-thai" format="2">
  <advance width="746"/>
  <unicode hex="0E5B"/>
  <outline>
    <contour>
      <point x="205" y="70" type="curve" smooth="yes"/>
      <point x="362" y="70"/>
      <point x="381" y="216"/>
      <point x="387" y="288" type="curve"/>
      <point x="366" y="288" type="line"/>
      <point x="395" y="122" type="line"/>
      <point x="476" y="122" type="line"/>
      <point x="499" y="294" type="line"/>
      <point x="480" y="294" type="line"/>
      <point x="514" y="132" type="line"/>
      <point x="576" y="132" type="line"/>
      <point x="594" y="280" type="line"/>
      <point x="571" y="280" type="line"/>
      <point x="587" y="179"/>
      <point x="623" y="133"/>
      <point x="669" y="133" type="curve" smooth="yes"/>
      <point x="685" y="133"/>
      <point x="697" y="138"/>
      <point x="706" y="145" type="curve"/>
      <point x="706" y="246" type="line"/>
      <point x="702" y="243"/>
      <point x="695" y="241"/>
      <point x="687" y="241" type="curve" smooth="yes"/>
      <point x="651" y="241"/>
      <point x="646" y="273"/>
      <point x="639" y="317" type="curve" smooth="yes"/>
      <point x="636" y="336" type="line"/>
      <point x="568" y="336" type="line"/>
      <point x="542" y="217" type="line"/>
      <point x="562" y="218" type="line"/>
      <point x="527" y="353" type="line"/>
      <point x="451" y="353" type="line"/>
      <point x="425" y="202" type="line"/>
      <point x="444" y="202" type="line"/>
      <point x="407" y="363" type="line"/>
      <point x="312" y="363" type="line"/>
      <point x="321" y="250"/>
      <point x="299" y="182"/>
      <point x="231" y="182" type="curve" smooth="yes"/>
      <point x="191" y="182"/>
      <point x="171" y="205"/>
      <point x="171" y="275" type="curve" smooth="yes"/>
      <point x="171" y="302"/>
      <point x="174" y="331"/>
      <point x="187" y="331" type="curve" smooth="yes"/>
      <point x="195" y="331"/>
      <point x="198" y="317"/>
      <point x="198" y="295" type="curve" smooth="yes"/>
      <point x="198" y="283"/>
      <point x="197" y="270"/>
      <point x="195" y="260" type="curve"/>
      <point x="283" y="232" type="line"/>
      <point x="291" y="258"/>
      <point x="295" y="285"/>
      <point x="295" y="312" type="curve" smooth="yes"/>
      <point x="295" y="391"/>
      <point x="259" y="438"/>
      <point x="178" y="438" type="curve" smooth="yes"/>
      <point x="81" y="438"/>
      <point x="41" y="372"/>
      <point x="41" y="266" type="curve" smooth="yes"/>
      <point x="41" y="147"/>
      <point x="91" y="70"/>
    </contour>
  </outline>
</glyph>
<glyph name="doChada-thai.short" format="2">
  <advance width="535"/>
  <anchor x="483" y="-93" name="bottom"/>
  <anchor x="452" y="506" name="top"/>
  <outline>
    <contour>
      <point x="66" y="-127" type="line"/>
      <point x="213" y="-127" type="line"/>
      <point x="213" y="-121" type="line" smooth="yes"/>
      <point x="213" y="-103"/>
      <point x="223" y="-80"/>
      <point x="261" y="-80" type="curve" smooth="yes"/>
      <point x="295" y="-80"/>
      <point x="327" y="-101"/>
      <point x="337" y="-127" type="curve"/>
      <point x="483" y="-127" type="line"/>
      <point x="483" y="325" type="line" smooth="yes"/>
      <point x="483" y="460"/>
      <point x="414" y="531"/>
      <point x="270" y="531" type="curve" smooth="yes"/>
      <point x="123" y="531"/>
      <point x="54" y="452"/>
      <point x="54" y="354" type="curve" smooth="yes"/>
      <point x="54" y="332" type="line"/>
      <point x="136" y="296" type="line"/>
      <point x="135" y="292" type="line"/>
      <point x="94" y="279"/>
      <point x="77" y="245"/>
      <point x="77" y="188" type="curve" smooth="yes"/>
      <point x="77" y="133" type="line" smooth="yes"/>
      <point x="77" y="111"/>
      <point x="69" y="101"/>
      <point x="51" y="101" type="curve" smooth="yes"/>
      <point x="46" y="101"/>
      <point x="41" y="102"/>
      <point x="35" y="105" type="curve"/>
      <point x="21" y="19" type="line"/>
      <point x="40" y="8"/>
      <point x="71" y="-2"/>
      <point x="110" y="-2" type="curve" smooth="yes"/>
      <point x="183" y="-2"/>
      <point x="234" y="31"/>
      <point x="234" y="114" type="curve" smooth="yes"/>
      <point x="234" y="181" type="line" smooth="yes"/>
      <point x="234" y="228"/>
      <point x="238" y="247"/>
      <point x="261" y="249" type="curve"/>
      <point x="271" y="315" type="line"/>
      <point x="221" y="347" type="line"/>
      <point x="224" y="377"/>
      <point x="232" y="403"/>
      <point x="267" y="403" type="curve" smooth="yes"/>
      <point x="309" y="403"/>
      <point x="321" y="373"/>
      <point x="321" y="316" type="curve" smooth="yes"/>
      <point x="321" y="-78" type="line"/>
      <point x="347" y="-78" type="line"/>
      <point x="327" y="-34"/>
      <point x="265" y="-14"/>
      <point x="200" y="-14" type="curve" smooth="yes"/>
      <point x="118" y="-14"/>
      <point x="66" y="-46"/>
      <point x="66" y="-111" type="curve" smooth="yes"/>
    </contour>
  </outline>
</glyph>
<glyph name="loChula-thai.short" format="2">
  <advance width="607"/>
  <anchor x="527" y="0" name="bottom"/>
  <anchor x="543" y="506" name="top"/>
  <outline>
    <contour>
      <point x="64" y="0" type="line"/>
      <point x="245" y="0" type="line"/>
      <point x="273" y="114" type="line" smooth="yes"/>
      <point x="281" y="149"/>
      <point x="289" y="183"/>
      <point x="297" y="232" type="curve"/>
      <point x="300" y="232" type="line"/>
      <point x="308" y="183"/>
      <point x="314" y="151"/>
      <point x="322" y="113" type="curve" smooth="yes"/>
      <point x="347" y="0" type="line"/>
      <point x="527" y="0" type="line"/>
      <point x="563" y="317" type="line" smooth="yes"/>
      <point x="568" y="365"/>
      <point x="557" y="414"/>
      <point x="506" y="432" type="curve"/>
      <point x="506" y="436" type="line"/>
      <point x="570" y="445"/>
      <point x="598" y="491"/>
      <point x="598" y="551" type="curve"/>
      <point x="445" y="551" type="line"/>
      <point x="442" y="514"/>
      <point x="433" y="496"/>
      <point x="390" y="496" type="curve" smooth="yes"/>
      <point x="332" y="496" type="line"/>
      <point x="332" y="399" type="line"/>
      <point x="374" y="399" type="line" smooth="yes"/>
      <point x="408" y="399"/>
      <point x="422" y="376"/>
      <point x="416" y="328" type="curve" smooth="yes"/>
      <point x="408" y="261" type="line" smooth="yes"/>
      <point x="403" y="218"/>
      <point x="402" y="178"/>
      <point x="401" y="137" type="curve"/>
      <point x="397" y="137" type="line"/>
      <point x="388" y="178"/>
      <point x="381" y="224"/>
      <point x="368" y="267" type="curve" smooth="yes"/>
      <point x="340" y="362" type="line"/>
      <point x="254" y="362" type="line"/>
      <point x="229" y="267" type="line" smooth="yes"/>
      <point x="215" y="215"/>
      <point x="203" y="170"/>
      <point x="197" y="140" type="curve"/>
      <point x="194" y="140" type="line"/>
      <point x="196" y="194"/>
      <point x="198" y="256"/>
      <point x="196" y="303" type="curve" smooth="yes"/>
      <point x="186" y="517" type="line"/>
      <point x="19" y="517" type="line"/>
    </contour>
  </outline>
</glyph>
<glyph name="lu_lakkhangyao-thai" format="2">
  <advance width="802"/>
  <outline>
    <contour>
      <point x="321" y="-203" type="line"/>
      <point x="483" y="-203" type="line"/>
      <point x="483" y="310" type="line" smooth="yes"/>
      <point x="483" y="373"/>
      <point x="496" y="403"/>
      <point x="535" y="403" type="curve" smooth="yes"/>
      <point x="575" y="403"/>
      <point x="588" y="373"/>
      <point x="588" y="311" type="curve" smooth="yes"/>
      <point x="588" y="-203" type="line"/>
      <point x="750" y="-203" type="line"/>
      <point x="750" y="333" type="line" smooth="yes"/>
      <point x="750" y="450"/>
      <point x="696" y="531"/>
      <point x="566" y="531" type="curve" smooth="yes"/>
      <point x="491" y="531"/>
      <point x="440" y="500"/>
      <point x="413" y="447" type="curve"/>
      <point x="410" y="447" type="line"/>
      <point x="388" y="501"/>
      <point x="333" y="531"/>
      <point x="263" y="531" type="curve" smooth="yes"/>
      <point x="123" y="531"/>
      <point x="54" y="452"/>
      <point x="54" y="354" type="curve" smooth="yes"/>
      <point x="54" y="332" type="line"/>
      <point x="136" y="296" type="line"/>
      <point x="135" y="292" type="line"/>
      <point x="94" y="279"/>
      <point x="77" y="245"/>
      <point x="77" y="188" type="curve" smooth="yes"/>
      <point x="77" y="125" type="line" smooth="yes"/>
      <point x="77" y="103"/>
      <point x="69" y="93"/>
      <point x="51" y="93" type="curve" smooth="yes"/>
      <point x="46" y="93"/>
      <point x="41" y="93"/>
      <point x="35" y="96" type="curve"/>
      <point x="21" y="12" type="line"/>
      <point x="40" y="0"/>
      <point x="71" y="-9"/>
      <point x="110" y="-9" type="curve" smooth="yes"/>
      <point x="183" y="-9"/>
      <point x="234" y="24"/>
      <point x="234" y="106" type="curve" smooth="yes"/>
      <point x="234" y="181" type="line" smooth="yes"/>
      <point x="234" y="228"/>
      <point x="238" y="247"/>
      <point x="261" y="249" type="curve"/>
      <point x="271" y="315" type="line"/>
      <point x="221" y="347" type="line"/>
      <point x="224" y="377"/>
      <point x="232" y="403"/>
      <point x="267" y="403" type="curve" smooth="yes"/>
      <point x="309" y="403"/>
      <point x="321" y="373"/>
      <point x="321" y="315" type="curve" smooth="yes"/>
    </contour>
  </outline>
</glyph>
<glyph name="maiChattawa-thai.narrow" format="2">
  <anchor x="-242" y="506" name="_top"/>
  <anchor x="-287" y="814" name="top"/>
  <outline>
    <contour>
      <point x="-419" y="602" type="line"/>
      <point x="-291" y="602" type="line"/>
      <point x="-291" y="832" type="line"/>
      <point x="-419" y="832" type="line"/>
    </contour>
    <contour>
      <point x="-468" y="671" type="line"/>
      <point x="-241" y="671" type="line"/>
      <point x="-241" y="763" type="line"/>
      <point x="-468" y="763" type="line"/>
    </contour>
  </outline>
</glyph>
<glyph name="maiChattawa-thai.small" format="2">
  <anchor x="-66" y="742" name="_top"/>
  <anchor x="-63" y="1037" name="top"/>
  <outline>
    <contour>
      <point x="-192" y="846" type="line"/>
      <point x="-72" y="846" type="line"/>
      <point x="-72" y="1036" type="line"/>
      <point x="-192" y="1036" type="line"/>
    </contour>
    <contour>
      <point x="-251" y="897" type="line"/>
      <point x="-13" y="897" type="line"/>
      <point x="-13" y="985" type="line"/>
      <point x="-251" y="985" type="line"/>
    </contour>
  </outline>
</glyph>
<glyph name="maiEk-thai.narrow" format="2">
  <anchor x="-242" y="506" name="_top"/>
  <anchor x="-258" y="815" name="top"/>
  <outline>
    <contour>
      <point x="-396" y="602" type="line"/>
      <point x="-252" y="602" type="line"/>
      <point x="-252" y="832" type="line"/>
      <point x="-396" y="832" type="line"/>
    </contour>
  </outline>
</glyph>
<glyph name="maiEk-thai.small" format="2">
  <anchor x="-56" y="742" name="_top"/>
  <anchor x="-56" y="1037" name="top"/>
  <outline>
    <contour>
      <point x="-190" y="846" type="line"/>
      <point x="-56" y="846" type="line"/>
      <point x="-56" y="1036" type="line"/>
      <point x="-190" y="1036" type="line"/>
    </contour>
  </outline>
</glyph>
<glyph name="maiHanaKat-thai.narrow" format="2">
  <anchor x="-245" y="506" name="_top"/>
  <anchor x="-239" y="711" name="top"/>
  <outline>
    <contour>
      <point x="-379" y="602" type="curve" smooth="yes"/>
      <point x="-245" y="602" type="line"/>
      <point x="-245" y="704" type="line"/>
      <point x="-328" y="704" type="line" smooth="yes"/>
      <point x="-350" y="704"/>
      <point x="-358" y="714"/>
      <point x="-358" y="733" type="curve" smooth="yes"/>
      <point x="-358" y="740"/>
      <point x="-357" y="751"/>
      <point x="-355" y="760" type="curve"/>
      <point x="-466" y="775" type="line"/>
      <point x="-478" y="750"/>
      <point x="-485" y="723"/>
      <point x="-485" y="699" type="curve" smooth="yes"/>
      <point x="-485" y="650"/>
      <point x="-462" y="602"/>
    </contour>
  </outline>
</glyph>
<glyph name="maiTho-thai.narrow" format="2">
  <anchor x="-242" y="506" name="_top"/>
  <anchor x="-296" y="815" name="top"/>
  <outline>
    <contour>
      <point x="-458" y="601" type="line"/>
      <point x="-242" y="601" type="line"/>
      <point x="-242" y="703" type="line"/>
      <point x="-330" y="703" type="line"/>
      <point x="-331" y="678" type="line"/>
      <point x="-302" y="694"/>
      <point x="-295" y="722"/>
      <point x="-295" y="746" type="curve" smooth="yes"/>
      <point x="-295" y="804"/>
      <point x="-326" y="831"/>
      <point x="-378" y="831" type="curve" smooth="yes"/>
      <point x="-404" y="831"/>
      <point x="-446" y="825"/>
      <point x="-467" y="802" type="curve"/>
      <point x="-452" y="733" type="line"/>
      <point x="-446" y="737"/>
      <point x="-437" y="742"/>
      <point x="-432" y="742" type="curve" smooth="yes"/>
      <point x="-421" y="742"/>
      <point x="-411" y="732"/>
      <point x="-411" y="712" type="curve" smooth="yes"/>
      <point x="-411" y="674"/>
      <point x="-447" y="660"/>
      <point x="-458" y="652" type="curve"/>
    </contour>
  </outline>
</glyph>
<glyph name="maiTho-thai.small" format="2">
  <anchor x="-56" y="742" name="_top"/>
  <anchor x="-56" y="1038" name="top"/>
  <outline>
    <contour>
      <point x="-219" y="846" type="line"/>
      <point x="15" y="846" type="line"/>
      <point x="15" y="934" type="line"/>
      <point x="-101" y="934" type="line"/>
      <point x="-95" y="912" type="line"/>
      <point x="-71" y="925"/>
      <point x="-66" y="949"/>
      <point x="-66" y="969" type="curve" smooth="yes"/>
      <point x="-66" y="1016"/>
      <point x="-95" y="1036"/>
      <point x="-144" y="1036" type="curve" smooth="yes"/>
      <point x="-169" y="1036"/>
      <point x="-207" y="1031"/>
      <point x="-227" y="1013" type="curve"/>
      <point x="-213" y="952" type="line"/>
      <point x="-207" y="959"/>
      <point x="-199" y="963"/>
      <point x="-192" y="963" type="curve" smooth="yes"/>
      <point x="-183" y="963"/>
      <point x="-173" y="954"/>
      <point x="-173" y="938" type="curve" smooth="yes"/>
      <point x="-173" y="907"/>
      <point x="-208" y="894"/>
      <point x="-219" y="888" type="curve"/>
    </contour>
  </outline>
</glyph>
<glyph name="maiTri-thai.narrow" format="2">
  <anchor x="-242" y="506" name="_top"/>
  <anchor x="-319" y="815" name="top"/>
  <outline>
    <contour>
      <point x="-439" y="597" type="curve" smooth="yes"/>
      <point x="-424" y="597"/>
      <point x="-403" y="601"/>
      <point x="-396" y="608" type="curve"/>
      <point x="-398" y="675" type="line"/>
      <point x="-403" y="673"/>
      <point x="-404" y="673"/>
      <point x="-408" y="673" type="curve" smooth="yes"/>
      <point x="-418" y="673"/>
      <point x="-424" y="690"/>
      <point x="-424" y="708" type="curve" smooth="yes"/>
      <point x="-424" y="729"/>
      <point x="-417" y="743"/>
      <point x="-411" y="744" type="curve"/>
      <point x="-393" y="724" type="line"/>
      <point x="-390" y="724" type="line"/>
      <point x="-371" y="744" type="line"/>
      <point x="-364" y="743"/>
      <point x="-357" y="731"/>
      <point x="-357" y="708" type="curve" smooth="yes"/>
      <point x="-357" y="686"/>
      <point x="-363" y="676"/>
      <point x="-372" y="670" type="curve"/>
      <point x="-372" y="602" type="line"/>
      <point x="-242" y="602" type="line"/>
      <point x="-242" y="693" type="line"/>
      <point x="-279" y="693" type="line"/>
      <point x="-277" y="674" type="line"/>
      <point x="-270" y="688"/>
      <point x="-264" y="708"/>
      <point x="-264" y="739" type="curve" smooth="yes"/>
      <point x="-264" y="790"/>
      <point x="-285" y="826"/>
      <point x="-353" y="830" type="curve"/>
      <point x="-392" y="792" type="line"/>
      <point x="-438" y="830" type="line"/>
      <point x="-486" y="827"/>
      <point x="-521" y="784"/>
      <point x="-521" y="711" type="curve" smooth="yes"/>
      <point x="-521" y="641"/>
      <point x="-490" y="597"/>
    </contour>
  </outline>
</glyph>
<glyph name="maiTri-thai.small" format="2">
  <anchor x="-56" y="742" name="_top"/>
  <anchor x="-56" y="1037" name="top"/>
  <outline>
    <contour>
      <point x="-207" y="842" type="curve" smooth="yes"/>
      <point x="-190" y="842"/>
      <point x="-169" y="846"/>
      <point x="-161" y="852" type="curve"/>
      <point x="-165" y="909" type="line"/>
      <point x="-168" y="907"/>
      <point x="-172" y="906"/>
      <point x="-176" y="906" type="curve" smooth="yes"/>
      <point x="-186" y="906"/>
      <point x="-197" y="917"/>
      <point x="-197" y="935" type="curve" smooth="yes"/>
      <point x="-197" y="953"/>
      <point x="-189" y="965"/>
      <point x="-185" y="965" type="curve"/>
      <point x="-161" y="942" type="line"/>
      <point x="-157" y="942" type="line"/>
      <point x="-133" y="965" type="line"/>
      <point x="-129" y="963"/>
      <point x="-121" y="952"/>
      <point x="-121" y="936" type="curve" smooth="yes"/>
      <point x="-121" y="919"/>
      <point x="-131" y="907"/>
      <point x="-137" y="904" type="curve"/>
      <point x="-137" y="846" type="line"/>
      <point x="27" y="846" type="line"/>
      <point x="27" y="926" type="line"/>
      <point x="-52" y="926" type="line"/>
      <point x="-49" y="910" type="line"/>
      <point x="-40" y="917"/>
      <point x="-31" y="936"/>
      <point x="-31" y="964" type="curve" smooth="yes"/>
      <point x="-31" y="1014"/>
      <point x="-66" y="1036"/>
      <point x="-126" y="1036" type="curve"/>
      <point x="-159" y="1000" type="line"/>
      <point x="-192" y="1036" type="line"/>
      <point x="-264" y="1036"/>
      <point x="-293" y="992"/>
      <point x="-293" y="937" type="curve" smooth="yes"/>
      <point x="-293" y="886"/>
      <point x="-271" y="842"/>
    </contour>
  </outline>
</glyph>
<glyph name="maitaikhu-thai.narrow" format="2">
  <anchor x="-242" y="506" name="_top"/>
  <anchor x="-274" y="794" name="top"/>
  <outline>
    <contour>
      <point x="-314" y="594" type="curve" smooth="yes"/>
      <point x="-270" y="594"/>
      <point x="-242" y="627"/>
      <point x="-242" y="700" type="curve" smooth="yes"/>
      <point x="-242" y="721" type="line"/>
      <point x="-331" y="721" type="line"/>
      <point x="-331" y="706" type="line" smooth="yes"/>
      <point x="-331" y="686"/>
      <point x="-337" y="672"/>
      <point x="-347" y="672" type="curve" smooth="yes"/>
      <point x="-360" y="672"/>
      <point x="-367" y="690"/>
      <point x="-369" y="717" type="curve"/>
      <point x="-383" y="717" type="line"/>
      <point x="-409" y="675" type="line"/>
      <point x="-416" y="675"/>
      <point x="-421" y="692"/>
      <point x="-421" y="716" type="curve" smooth="yes"/>
      <point x="-421" y="748"/>
      <point x="-412" y="763"/>
      <point x="-399" y="763" type="curve" smooth="yes"/>
      <point x="-243" y="763" type="line"/>
      <point x="-243" y="839" type="line"/>
      <point x="-423" y="839" type="line" smooth="yes"/>
      <point x="-469" y="839"/>
      <point x="-511" y="800"/>
      <point x="-511" y="718" type="curve" smooth="yes"/>
      <point x="-511" y="639"/>
      <point x="-472" y="597"/>
      <point x="-411" y="597" type="curve"/>
      <point x="-376" y="639" type="line"/>
      <point x="-363" y="610"/>
      <point x="-343" y="594"/>
    </contour>
  </outline>
</glyph>
<glyph name="phinthu-thai.small" format="2">
  <anchor x="-52" y="-93" name="_bottom"/>
  <anchor x="-52" y="-227" name="bottom"/>
  <outline>
    <contour>
      <point x="-125" y="-259" type="curve" smooth="yes"/>
      <point x="-69" y="-259"/>
      <point x="-37" y="-237"/>
      <point x="-37" y="-199" type="curve" smooth="yes"/>
      <point x="-37" y="-162"/>
      <point x="-69" y="-139"/>
      <point x="-125" y="-139" type="curve" smooth="yes"/>
      <point x="-181" y="-139"/>
      <point x="-213" y="-162"/>
      <point x="-213" y="-199" type="curve" smooth="yes"/>
      <point x="-213" y="-237"/>
      <point x="-181" y="-259"/>
    </contour>
  </outline>
</glyph>
<glyph name="ru-thai.short" format="2">
  <advance width="518"/>
  <anchor x="466" y="-93" name="bottom"/>
  <anchor x="448" y="506" name="top"/>
  <outline>
    <contour>
      <point x="304" y="-126" type="line"/>
      <point x="466" y="-126" type="line"/>
      <point x="466" y="94" type="line"/>
      <point x="304" y="94" type="line"/>
    </contour>
    <component base="thoThung-thai"/>
  </outline>
</glyph>
<glyph name="ru_lakkhangyao-thai" format="2">
  <advance width="785"/>
  <outline>
    <contour>
      <point x="304" y="-203" type="line"/>
      <point x="466" y="-203" type="line"/>
      <point x="466" y="310" type="line" smooth="yes"/>
      <point x="466" y="373"/>
      <point x="479" y="403"/>
      <point x="518" y="403" type="curve" smooth="yes"/>
      <point x="558" y="403"/>
      <point x="571" y="373"/>
      <point x="571" y="311" type="curve" smooth="yes"/>
      <point x="571" y="-203" type="line"/>
      <point x="733" y="-203" type="line"/>
      <point x="733" y="333" type="line" smooth="yes"/>
      <point x="733" y="450"/>
      <point x="679" y="531"/>
      <point x="548" y="531" type="curve" smooth="yes"/>
      <point x="474" y="531"/>
      <point x="423" y="500"/>
      <point x="396" y="447" type="curve"/>
      <point x="393" y="447" type="line"/>
      <point x="366" y="501"/>
      <point x="314" y="531"/>
      <point x="237" y="531" type="curve" smooth="yes"/>
      <point x="111" y="531"/>
      <point x="37" y="452"/>
      <point x="37" y="354" type="curve" smooth="yes"/>
      <point x="37" y="332" type="line"/>
      <point x="119" y="296" type="line"/>
      <point x="118" y="292" type="line"/>
      <point x="65" y="272"/>
      <point x="39" y="238"/>
      <point x="39" y="166" type="curve" smooth="yes"/>
      <point x="39" y="119" type="line" smooth="yes"/>
      <point x="39" y="35"/>
      <point x="83" y="-9"/>
      <point x="173" y="-9" type="curve" smooth="yes"/>
      <point x="212" y="-9"/>
      <point x="244" y="-1"/>
      <point x="263" y="11" type="curve"/>
      <point x="251" y="102" type="line"/>
      <point x="244" y="99"/>
      <point x="235" y="97"/>
      <point x="226" y="97" type="curve" smooth="yes"/>
      <point x="204" y="97"/>
      <point x="196" y="108"/>
      <point x="196" y="135" type="curve" smooth="yes"/>
      <point x="196" y="185" type="line" smooth="yes"/>
      <point x="196" y="232"/>
      <point x="207" y="246"/>
      <point x="244" y="249" type="curve"/>
      <point x="254" y="314" type="line"/>
      <point x="204" y="347" type="line"/>
      <point x="207" y="377"/>
      <point x="215" y="403"/>
      <point x="250" y="403" type="curve" smooth="yes"/>
      <point x="292" y="403"/>
      <point x="304" y="373"/>
      <point x="304" y="315" type="curve" smooth="yes"/>
    </contour>
  </outline>
</glyph>
<glyph name="saraI-thai.narrow" format="2">
  <anchor x="-242" y="506" name="_top"/>
  <anchor x="-242" y="683" name="top"/>
  <outline>
    <contour>
      <point x="-555" y="602" type="line"/>
      <point x="-242" y="602" type="line"/>
      <point x="-242" y="714" type="line"/>
      <point x="-482" y="714" type="line"/>
      <point x="-555" y="669" type="line"/>
    </contour>
  </outline>
</glyph>
<glyph name="saraU-thai.small" format="2">
  <anchor x="-52" y="-93" name="_bottom"/>
  <anchor x="-52" y="-231" name="bottom"/>
  <outline>
    <contour>
      <point x="-190" y="-261" type="line"/>
      <point x="-52" y="-261" type="line"/>
      <point x="-52" y="-219" type="line" smooth="yes"/>
      <point x="-52" y="-173"/>
      <point x="-72" y="-144"/>
      <point x="-137" y="-144" type="curve" smooth="yes"/>
      <point x="-177" y="-144"/>
      <point x="-213" y="-153"/>
      <point x="-228" y="-160" type="curve"/>
      <point x="-223" y="-224" type="line"/>
      <point x="-218" y="-222"/>
      <point x="-212" y="-220"/>
      <point x="-207" y="-220" type="curve" smooth="yes"/>
      <point x="-195" y="-220"/>
      <point x="-190" y="-228"/>
      <point x="-190" y="-245" type="curve" smooth="yes"/>
    </contour>
  </outline>
</glyph>
<glyph name="saraUe-thai.narrow" format="2">
  <anchor x="-242" y="506" name="_top"/>
  <anchor x="-242" y="742" name="top"/>
  <outline>
    <contour>
      <point x="-555" y="602" type="line"/>
      <point x="-316" y="602" type="line" smooth="yes"/>
      <point x="-258" y="602"/>
      <point x="-232" y="643"/>
      <point x="-232" y="697" type="curve" smooth="yes"/>
      <point x="-232" y="753"/>
      <point x="-263" y="794"/>
      <point x="-314" y="794" type="curve" smooth="yes"/>
      <point x="-364" y="794"/>
      <point x="-394" y="756"/>
      <point x="-394" y="706" type="curve" smooth="yes"/>
      <point x="-394" y="696"/>
      <point x="-392" y="684"/>
      <point x="-390" y="672" type="curve"/>
      <point x="-359" y="706" type="line"/>
      <point x="-482" y="706" type="line"/>
      <point x="-555" y="661" type="line"/>
    </contour>
    <contour>
      <point x="-315" y="657" type="curve" smooth="yes"/>
      <point x="-337" y="657"/>
      <point x="-348" y="675"/>
      <point x="-348" y="698" type="curve" smooth="yes"/>
      <point x="-348" y="720"/>
      <point x="-336" y="737"/>
      <point x="-317" y="737" type="curve" smooth="yes"/>
      <point x="-297" y="737"/>
      <point x="-285" y="720"/>
      <point x="-285" y="696" type="curve" smooth="yes"/>
      <point x="-285" y="674"/>
      <point x="-295" y="657"/>
    </contour>
  </outline>
</glyph>
<glyph name="saraUee-thai.narrow" format="2">
  <anchor x="-242" y="506" name="_top"/>
  <anchor x="-259" y="742" name="top"/>
  <outline>
    <contour>
      <point x="-555" y="602" type="line"/>
      <point x="-242" y="602" type="line"/>
      <point x="-242" y="706" type="line"/>
      <point x="-482" y="706" type="line"/>
      <point x="-555" y="661" type="line"/>
    </contour>
    <contour>
      <point x="-417" y="690" type="line"/>
      <point x="-346" y="690" type="line"/>
      <point x="-346" y="780" type="line"/>
      <point x="-417" y="780" type="line"/>
    </contour>
    <contour>
      <point x="-313" y="690" type="line"/>
      <point x="-242" y="690" type="line"/>
      <point x="-242" y="780" type="line"/>
      <point x="-313" y="780" type="line"/>
    </contour>
  </outline>
</glyph>
<glyph name="saraUu-thai.small" format="2">
  <anchor x="-52" y="-93" name="_bottom"/>
  <anchor x="-53" y="-231" name="bottom"/>
  <outline>
    <contour>
      <point x="-194" y="-265" type="curve" smooth="yes"/>
      <point x="-95" y="-265"/>
      <point x="-53" y="-246"/>
      <point x="-53" y="-190" type="curve" smooth="yes"/>
      <point x="-53" y="-142" type="line"/>
      <point x="-181" y="-142" type="line"/>
      <point x="-181" y="-196" type="line" smooth="yes"/>
      <point x="-181" y="-205"/>
      <point x="-185" y="-210"/>
      <point x="-198" y="-210" type="curve" smooth="yes"/>
      <point x="-210" y="-210"/>
      <point x="-214" y="-205"/>
      <point x="-214" y="-196" type="curve" smooth="yes"/>
      <point x="-214" y="-185" type="line" smooth="yes"/>
      <point x="-214" y="-153"/>
      <point x="-238" y="-139"/>
      <point x="-291" y="-139" type="curve" smooth="yes"/>
      <point x="-310" y="-139"/>
      <point x="-335" y="-142"/>
      <point x="-356" y="-148" type="curve"/>
      <point x="-351" y="-191" type="line"/>
      <point x="-339" y="-189"/>
      <point x="-331" y="-194"/>
      <point x="-331" y="-210" type="curve" smooth="yes"/>
      <point x="-331" y="-214" type="line" smooth="yes"/>
      <point x="-331" y="-248"/>
      <point x="-287" y="-265"/>
    </contour>
  </outline>
</glyph>
<glyph name="thanthakhat-thai.narrow" format="2">
  <anchor x="-239" y="506" name="_top"/>
  <anchor x="-237" y="725" name="top"/>
  <outline>
    <contour>
      <point x="-428" y="581" type="curve"/>
      <point x="-307" y="603" type="line"/>
      <point x="-311" y="613"/>
      <point x="-313" y="623"/>
      <point x="-313" y="633" type="curve" smooth="yes"/>
      <point x="-313" y="654"/>
      <point x="-302" y="662"/>
      <point x="-283" y="662" type="curve" smooth="yes"/>
      <point x="-246" y="662" type="line"/>
      <point x="-246" y="770" type="line"/>
      <point x="-332" y="770" type="line" smooth="yes"/>
      <point x="-412" y="770"/>
      <point x="-446" y="723"/>
      <point x="-446" y="665" type="curve" smooth="yes"/>
      <point x="-446" y="633"/>
      <point x="-439" y="601"/>
    </contour>
  </outline>
</glyph>
<glyph name="thanthakhat-thai.small" format="2">
  <anchor x="-56" y="742" name="_top"/>
  <anchor x="-56" y="1032" name="top"/>
  <outline>
    <contour>
      <point x="-191" y="820" type="curve"/>
      <point x="-88" y="845" type="line"/>
      <point x="-93" y="856"/>
      <point x="-95" y="871"/>
      <point x="-95" y="881" type="curve" smooth="yes"/>
      <point x="-95" y="906"/>
      <point x="-83" y="918"/>
      <point x="-53" y="918" type="curve" smooth="yes"/>
      <point x="15" y="918" type="line"/>
      <point x="15" y="1010" type="line"/>
      <point x="-62" y="1010" type="line" smooth="yes"/>
      <point x="-182" y="1010"/>
      <point x="-213" y="960"/>
      <point x="-213" y="906" type="curve" smooth="yes"/>
      <point x="-213" y="878"/>
      <point x="-206" y="846"/>
    </contour>
  </outline>
</glyph>
<glyph name="thoThan-thai.less" format="2">
  <advance width="473"/>
  <anchor x="383" y="0" name="bottom"/>
  <anchor x="438" y="506" name="top"/>
  <outline>
    <contour>
      <point x="75" y="0" type="line"/>
      <point x="206" y="0" type="line" smooth="yes"/>
      <point x="373" y="0"/>
      <point x="444" y="100"/>
      <point x="444" y="254" type="curve" smooth="yes"/>
      <point x="444" y="368"/>
      <point x="404" y="429"/>
      <point x="358" y="447" type="curve"/>
      <point x="344" y="511"/>
      <point x="284" y="531"/>
      <point x="207" y="531" type="curve" smooth="yes"/>
      <point x="127" y="531"/>
      <point x="76" y="511"/>
      <point x="38" y="490" type="curve"/>
      <point x="38" y="359" type="line"/>
      <point x="67" y="383"/>
      <point x="109" y="405"/>
      <point x="171" y="405" type="curve" smooth="yes"/>
      <point x="233" y="405"/>
      <point x="280" y="369"/>
      <point x="280" y="260" type="curve" smooth="yes"/>
      <point x="280" y="169"/>
      <point x="254" y="120"/>
      <point x="219" y="120" type="curve" smooth="yes"/>
      <point x="218" y="120" type="line"/>
      <point x="218" y="306" type="line"/>
      <point x="43" y="306" type="line"/>
      <point x="43" y="213" type="line"/>
      <point x="75" y="213" type="line"/>
    </contour>
    <contour>
      <point x="352" y="404" type="line"/>
      <point x="442" y="433"/>
      <point x="461" y="493"/>
      <point x="461" y="551" type="curve"/>
      <point x="337" y="551" type="line"/>
      <point x="335" y="519"/>
      <point x="320" y="495"/>
      <point x="293" y="476" type="curve"/>
    </contour>
  </outline>
</glyph>
<glyph name="toPatak-thai.short" format="2">
  <advance width="535"/>
  <anchor x="483" y="-93" name="bottom"/>
  <anchor x="452" y="506" name="top"/>
  <outline>
    <contour>
      <point x="40" y="-126" type="line"/>
      <point x="154" y="-126" type="line"/>
      <point x="154" y="-122" type="line" smooth="yes"/>
      <point x="154" y="-104"/>
      <point x="160" y="-88"/>
      <point x="182" y="-88" type="curve" smooth="yes"/>
      <point x="201" y="-88"/>
      <point x="216" y="-99"/>
      <point x="224" y="-126" type="curve"/>
      <point x="258" y="-126" type="line"/>
      <point x="290" y="-90" type="line"/>
      <point x="326" y="-126" type="line"/>
      <point x="483" y="-126" type="line"/>
      <point x="483" y="325" type="line" smooth="yes"/>
      <point x="483" y="460"/>
      <point x="413" y="531"/>
      <point x="271" y="531" type="curve" smooth="yes"/>
      <point x="122" y="531"/>
      <point x="54" y="452"/>
      <point x="54" y="354" type="curve" smooth="yes"/>
      <point x="54" y="332" type="line"/>
      <point x="136" y="296" type="line"/>
      <point x="135" y="292" type="line"/>
      <point x="94" y="279"/>
      <point x="77" y="245"/>
      <point x="77" y="188" type="curve" smooth="yes"/>
      <point x="77" y="133" type="line" smooth="yes"/>
      <point x="77" y="111"/>
      <point x="69" y="101"/>
      <point x="51" y="101" type="curve" smooth="yes"/>
      <point x="46" y="101"/>
      <point x="41" y="102"/>
      <point x="35" y="105" type="curve"/>
      <point x="21" y="19" type="line"/>
      <point x="40" y="8"/>
      <point x="71" y="-2"/>
      <point x="110" y="-2" type="curve" smooth="yes"/>
      <point x="183" y="-2"/>
      <point x="234" y="31"/>
      <point x="234" y="114" type="curve" smooth="yes"/>
      <point x="234" y="181" type="line" smooth="yes"/>
      <point x="234" y="228"/>
      <point x="238" y="247"/>
      <point x="261" y="249" type="curve"/>
      <point x="271" y="315" type="line"/>
      <point x="221" y="347" type="line"/>
      <point x="224" y="375"/>
      <point x="230" y="403"/>
      <point x="268" y="403" type="curve" smooth="yes"/>
      <point x="309" y="403"/>
      <point x="321" y="372"/>
      <point x="321" y="316" type="curve" smooth="yes"/>
      <point x="321" y="-76" type="line"/>
      <point x="332" y="-68" type="line"/>
      <point x="282" y="-24" type="line"/>
      <point x="238" y="-71" type="line"/>
      <point x="211" y="-33"/>
      <point x="186" y="-20"/>
      <point x="140" y="-20" type="curve" smooth="yes"/>
      <point x="85" y="-20"/>
      <point x="40" y="-38"/>
      <point x="40" y="-110" type="curve" smooth="yes"/>
    </contour>
  </outline>
</glyph>
<glyph name="yoYing-thai.less" format="2">
  <advance width="743"/>
  <anchor x="687" y="0" name="bottom"/>
  <anchor x="691" y="506" name="top"/>
  <outline>
    <contour>
      <point x="492" y="-14" type="curve" smooth="yes"/>
      <point x="626" y="-14"/>
      <point x="691" y="54"/>
      <point x="691" y="205" type="curve" smooth="yes"/>
      <point x="691" y="517" type="line"/>
      <point x="529" y="517" type="line"/>
      <point x="529" y="191" type="line" smooth="yes"/>
      <point x="529" y="136"/>
      <point x="511" y="114"/>
      <point x="490" y="114" type="curve" smooth="yes"/>
      <point x="468" y="114"/>
      <point x="451" y="136"/>
      <point x="451" y="191" type="curve" smooth="yes"/>
      <point x="451" y="341" type="line" smooth="yes"/>
      <point x="451" y="466"/>
      <point x="378" y="531"/>
      <point x="247" y="531" type="curve" smooth="yes"/>
      <point x="109" y="531"/>
      <point x="37" y="453"/>
      <point x="37" y="354" type="curve" smooth="yes"/>
      <point x="37" y="332" type="line"/>
      <point x="119" y="296" type="line"/>
      <point x="118" y="292" type="line"/>
      <point x="65" y="272"/>
      <point x="39" y="242"/>
      <point x="39" y="170" type="curve" smooth="yes"/>
      <point x="39" y="119" type="line" smooth="yes"/>
      <point x="39" y="35"/>
      <point x="83" y="-9"/>
      <point x="173" y="-9" type="curve" smooth="yes"/>
      <point x="212" y="-9"/>
      <point x="244" y="-1"/>
      <point x="263" y="11" type="curve"/>
      <point x="251" y="102" type="line"/>
      <point x="244" y="99"/>
      <point x="235" y="97"/>
      <point x="226" y="97" type="curve" smooth="yes"/>
      <point x="204" y="97"/>
      <point x="196" y="108"/>
      <point x="196" y="135" type="curve" smooth="yes"/>
      <point x="196" y="185" type="line" smooth="yes"/>
      <point x="196" y="232"/>
      <point x="207" y="246"/>
      <point x="244" y="249" type="curve"/>
      <point x="254" y="315" type="line"/>
      <point x="204" y="351" type="line"/>
      <point x="208" y="387"/>
      <point x="220" y="406"/>
      <point x="247" y="406" type="curve" smooth="yes"/>
      <point x="279" y="406"/>
      <point x="292" y="385"/>
      <point x="292" y="326" type="curve" smooth="yes"/>
      <point x="292" y="205" type="line" smooth="yes"/>
      <point x="292" y="54"/>
      <point x="357" y="-14"/>
    </contour>
  </outline>
</glyph>
